<svg xmlns="http://www.w3.org/2000/svg" viewBox="0 0 96.1 85.3"><defs><style>.cls-1{fill:#fff;}.cls-2{fill:#1a9943;}</style></defs><title>coupun</title><g id="圖層_2" data-name="圖層 2"><g id="圖層_1-2" data-name="圖層 1"><path class="cls-1" d="M9,26.21,67.62.54a6.84,6.84,0,0,1,7.68,2L95.56,48.39s2,6.1-3.28,8.41l-63.8,28s-6.09,2-8.41-3.29S0,35.34,0,35.34"/><path class="cls-2" d="M76,3.82,89.82,35.28,41,56.68a6.91,6.91,0,0,0-8-10.94A7.06,7.06,0,0,0,29,50.65L16.76,22.82,67.62.54A6.39,6.39,0,0,1,76,3.82ZM23.28,62.07a4.2,4.2,0,0,1-2.61-8,4.38,4.38,0,0,1,2.23-.35,4.21,4.21,0,0,1,3,1.79l3.52,5.1Zm9.68-3-1.36-6a4.31,4.31,0,0,1,8.12-2.71,4.23,4.23,0,0,1-1.54,5.19ZM3.82,28.49l10.46-4.58L26.85,52.6a7,7,0,0,0-3.65-1.53,7.25,7.25,0,0,0-3.62.55,7,7,0,0,0-3.64,9.15,6.9,6.9,0,0,0,6.29,4.12l-7.91,3.47L.54,36.9A6.4,6.4,0,0,1,3.82,28.49Zm16.25,53L15.41,70.84l14-6.14-3,7.66a1.36,1.36,0,0,0,2.53,1l3.29-8.42,6.68,15.26L28.48,84.76A6.39,6.39,0,0,1,20.07,81.47ZM92.28,56.8,41.41,79.09,34.73,63.83l11.35,4.44a1.36,1.36,0,1,0,1-2.53L36.48,61.61,90.9,37.76l4.66,10.63A6.39,6.39,0,0,1,92.28,56.8Z"/><path class="cls-1" d="M37.92,21.84l-4.27,1.87-.53-1.2L39,20l.38.87c-1,3.6-.42,5.74,1,9.36l-1.46.64C37.59,27.43,37.24,25.05,37.92,21.84Z"/><path class="cls-1" d="M42.36,24.52l3.25-1.43.46,1.05-3.25,1.42Z"/><path class="cls-1" d="M48.49,25.21l2-.87L47.71,18l-1.63.72-.4-.9a6.06,6.06,0,0,0,1.67-1.56l1.08-.47,3.46,7.91,1.78-.78.51,1.17L49,26.38Z"/><path class="cls-1" d="M55.52,22.13l2-.87-2.77-6.32-1.63.71-.39-.9a6,6,0,0,0,1.67-1.55l1.07-.47,3.47,7.91,1.78-.78L61.22,21,56,23.3Z"/><path class="cls-1" d="M40.2,37.07l1.47-.65,5.35,4L48.81,42l.07,0C48.39,41,47.8,40,47.37,39l-1.86-4.24,1.36-.59,4,9.08-1.47.65-5.36-4-1.78-1.49-.06,0c.48.91,1,1.91,1.49,2.89l1.87,4.29-1.36.59Z"/><path class="cls-1" d="M51.64,33.49,49,34.65l-.53-1.2,6.78-3,.52,1.19-2.68,1.18,3.46,7.88-1.43.63Z"/><path class="cls-1" d="M60.12,37.77l2-.87-2.77-6.32-1.63.71-.39-.9A6.19,6.19,0,0,0,59,28.84l1.07-.47,3.47,7.91,1.78-.78.51,1.17-5.18,2.27Z"/><path class="cls-1" d="M65.19,31.49c-1.38-3.15-.91-5.18.88-6s3.62.25,5,3.39.92,5.25-.86,6S66.57,34.65,65.19,31.49Zm4.51-2c-1.14-2.6-2.21-3.26-3.13-2.86s-1.17,1.64,0,4.25,2.24,3.33,3.17,2.92S70.86,32.14,69.7,29.51Z"/><path class="cls-1" d="M72.22,28.41c-1.38-3.15-.9-5.18.89-6s3.61.26,5,3.39.91,5.25-.86,6S73.61,31.57,72.22,28.41Zm4.52-2c-1.14-2.6-2.21-3.27-3.14-2.86s-1.16,1.64,0,4.24,2.24,3.33,3.16,2.93S77.89,29.06,76.74,26.43Z"/></g></g></svg>