<svg xmlns="http://www.w3.org/2000/svg" viewBox="0 0 80.51 80.51"><defs><style>.cls-1{fill:#eb6478;}.cls-2{fill:#fff;}</style></defs><title>icon-2</title><g id="圖層_2" data-name="圖層 2"><g id="圖層_1-2" data-name="圖層 1"><circle class="cls-1" cx="40.25" cy="40.25" r="40.25"/><path class="cls-2" d="M25.83,38.86H18.39a.93.93,0,0,0-.93.93v13h9.3v-13A.92.92,0,0,0,25.83,38.86Z"/><path class="cls-2" d="M62.12,38.86H54.68a.93.93,0,0,0-.94.93v13h9.31v-13A.93.93,0,0,0,62.12,38.86Z"/><path class="cls-2" d="M37.93,27.69H30.48a.93.93,0,0,0-.93.93V52.81h9.31V28.62A.93.93,0,0,0,37.93,27.69Z"/><path class="cls-2" d="M50,33.28H42.58a.93.93,0,0,0-.93.93v18.6H51V34.21A.92.92,0,0,0,50,33.28Z"/></g></g></svg>