<svg xmlns="http://www.w3.org/2000/svg" viewBox="0 0 106.77 106.77"><defs><style>.cls-1{fill:#f6bebe;}.cls-2{fill:#fff;}</style></defs><title>icon-1</title><g id="圖層_2" data-name="圖層 2"><g id="圖層_1-2" data-name="圖層 1"><circle class="cls-1" cx="53.39" cy="53.39" r="53.39"/><path class="cls-2" d="M38.75,48.07h0a1.3,1.3,0,0,0-1.3,1.3v2.49a1.3,1.3,0,0,0,1.3,1.31h0a1.3,1.3,0,0,0,1.3-1.3v-2.5A1.31,1.31,0,0,0,38.75,48.07Z"/><path class="cls-2" d="M33.45,29.12a1.31,1.31,0,0,0,1.82.29l2.19-1.59V45.17a1.31,1.31,0,0,0,2.61,0V25.92l9-6.52,9,6.53V39.05a1.3,1.3,0,0,0,2.6,0V27.83l2.19,1.6a1.31,1.31,0,0,0,2.08-.91,1.32,1.32,0,0,0-.54-1.19l-3.73-2.72V19.05a1.31,1.31,0,0,0-1.3-1.31h0A1.31,1.31,0,0,0,58,19.05v3.66l-8.2-6a1.31,1.31,0,0,0-1.53,0L33.74,27.3a1.31,1.31,0,0,0-.29,1.82Z"/><path class="cls-2" d="M56.49,47.29A22.08,22.08,0,1,0,78.56,69.36,22.08,22.08,0,0,0,56.49,47.29Zm0,41.54A19.47,19.47,0,1,1,76,69.36,19.46,19.46,0,0,1,56.49,88.83Z"/><path class="cls-2" d="M56.49,59.69a4.13,4.13,0,0,1,4.13,4.12,1.3,1.3,0,1,0,2.6,0,6.73,6.73,0,0,0-5.42-6.6V55.4a1.31,1.31,0,0,0-2.61,0v1.81a6.73,6.73,0,0,0,1.3,13.33,4.13,4.13,0,0,1,0,8.25h-.08a4.12,4.12,0,0,1-4.08-4.12,1.31,1.31,0,0,0-2.61,0,6.75,6.75,0,0,0,5.43,6.6v2.06a1.31,1.31,0,0,0,2.61,0V81.27a6.73,6.73,0,0,0-1.31-13.33,4.13,4.13,0,0,1,0-8.25Z"/><path class="cls-2" d="M45.62,37.87a1.31,1.31,0,0,0-1.31,1.3v7.28a1.31,1.31,0,0,0,2.61,0V39.17A1.3,1.3,0,0,0,45.62,37.87Z"/><path class="cls-2" d="M46.92,34.63a1.31,1.31,0,1,0-2.61,0v.08a1.31,1.31,0,0,0,2.61,0Z"/><path class="cls-2" d="M59.32,41.69A1.3,1.3,0,0,0,58,43v1a1.3,1.3,0,0,0,2.6,0V43A1.3,1.3,0,0,0,59.32,41.69Z"/><path class="cls-2" d="M51.17,38.42v5.79a1.3,1.3,0,0,0,2.6,0V38.42a1.3,1.3,0,0,0-2.6,0Z"/></g></g></svg>