<svg xmlns="http://www.w3.org/2000/svg" xmlns:xlink="http://www.w3.org/1999/xlink" viewBox="0 0 152.92 183.68"><defs><style>.cls-1,.cls-3,.cls-7{fill:none;}.cls-2{fill:#fff;}.cls-3{stroke:#fdfdfd;stroke-width:3px;}.cls-3,.cls-7{stroke-miterlimit:10;}.cls-4{fill:#82b4e1;}.cls-5{fill:#f4ca35;}.cls-6{clip-path:url(#clip-path);}.cls-7{stroke:#1d2b58;stroke-width:1.08px;}.cls-8{fill:#1d2b58;}</style><clipPath id="clip-path"><path class="cls-1" d="M92.9,117.6l-1.11-11.45s21-9.87,18.78-33.15S86.76,42.88,73.1,44.2,39.61,56.4,41.86,79.67s24.81,28.92,24.81,28.92L67.78,120Z"/></clipPath></defs><title>idea</title><g id="圖層_2" data-name="圖層 2"><g id="圖層_1-2" data-name="圖層 1"><circle class="cls-2" cx="79.56" cy="92.63" r="73.36"/><path class="cls-3" d="M146.62,149.54A85.23,85.23,0,0,1,1.38,130.88"/><path class="cls-3" d="M24.46,21.7A85.32,85.32,0,0,1,148.82,37"/><rect class="cls-4" x="75.99" y="131.72" width="15.92" height="15.92" rx="5.15" ry="5.15" transform="translate(-13.88 9.35) rotate(-5.89)"/><path class="cls-5" d="M92.9,117.6l-1.11-11.45s21-9.87,18.78-33.15S86.76,42.88,73.1,44.2,39.61,56.4,41.86,79.67s24.81,28.92,24.81,28.92L67.78,120Z"/><g class="cls-6"><path class="cls-7" d="M76.29,120.62c.16.52-2.14-21-6.4-31.59-.88-2.18-2.32-9.23-7.57-10.88-3.74-1.18-7.59,4.2-3.38,8.66,3.48,3.66,11.54,2.45,15.21.58C79.93,84.45,85,69.78,76.54,69.62s-8,16.58,7.9,17.85,15.62-10.82,11-12.22c-4.37-1.33-16.56,6.6-10.29,44.51"/></g><path class="cls-8" d="M63.32,115h37a0,0,0,0,1,0,0v14a13.75,13.75,0,0,1-13.75,13.75H77.07a13.75,13.75,0,0,1-13.75-13.75V115a0,0,0,0,1,0,0Z" transform="translate(-12.78 9.07) rotate(-5.89)"/><rect class="cls-4" x="57.92" y="119" width="47.81" height="3.19" rx="1.33" ry="1.33" transform="translate(-11.94 9.03) rotate(-5.89)"/><rect class="cls-4" x="58.68" y="124.82" width="47.81" height="3.19" rx="1.33" ry="1.33" transform="translate(-12.53 9.14) rotate(-5.89)"/></g></g></svg>