<svg xmlns="http://www.w3.org/2000/svg" viewBox="0 0 16.62 16.62"><defs><style>.cls-1{fill:#fff;}</style></defs><title>link</title><g id="圖層_2" data-name="圖層 2"><g id="圖層_1-2" data-name="圖層 1"><path class="cls-1" d="M15.87,0h-6a.76.76,0,0,0,0,1.51H14L6.27,9.29a.75.75,0,0,0,0,1.07.75.75,0,0,0,1.06,0l7.78-7.78V6.8a.76.76,0,0,0,.76.76.75.75,0,0,0,.75-.76v-6A.75.75,0,0,0,15.87,0Z"/><path class="cls-1" d="M12.85,7.56a.75.75,0,0,0-.76.75v6.8H1.51V4.53h6.8a.75.75,0,0,0,.76-.75A.76.76,0,0,0,8.31,3H.76A.76.76,0,0,0,0,3.78V15.87a.75.75,0,0,0,.76.75H12.85a.75.75,0,0,0,.75-.75V8.31A.75.75,0,0,0,12.85,7.56Z"/></g></g></svg>