<svg xmlns="http://www.w3.org/2000/svg" xmlns:xlink="http://www.w3.org/1999/xlink" viewBox="0 0 115.19 98.48"><defs><style>.cls-1{fill:none;}.cls-2{fill:#91826f;}.cls-3{fill:#aa9b88;}.cls-4{fill:#6b5d49;}.cls-5{fill:#786956;}.cls-6{fill:#ab9c88;}.cls-7{clip-path:url(#clip-path);}.cls-8{fill:#f4ca92;}.cls-9{fill:#b0bd39;}.cls-10{fill:#faf4b0;}.cls-11{fill:#c7d450;}.cls-12{fill:#138b3b;}.cls-13{fill:#dae2bb;}.cls-14{fill:#e7efc9;}.cls-15{fill:#f0f0d7;}.cls-16{opacity:0.5;}.cls-17{fill:#cdd5af;}.cls-18{fill:#e3e3ca;}.cls-19{fill:#f2f6d6;}.cls-20{fill:#fdfce5;}.cls-21{fill:#faead5;}.cls-22{fill:#efdbbb;}.cls-23{fill:#eccf9c;}.cls-24{fill:#fdf2e3;}.cls-25{fill:#f6e7ce;}.cls-26{fill:#f4ddb6;}.cls-27{fill:#ad6954;}.cls-28{fill:#e0a38b;}.cls-29{fill:#994638;}.cls-30{fill:#76342a;}.cls-31{fill:#026636;}.cls-32{fill:#cea36a;}.cls-33{fill:#c1965e;}.cls-34{fill:#d4bb84;}.cls-35{fill:#b58a52;}.cls-36{fill:#dbb077;}.cls-37{fill:#e0c991;}.cls-38{fill:#e7bc84;}.cls-39{fill:#fbe3ab;}.cls-40{fill:#d07a10;}.cls-41{fill:#f2921b;}.cls-42{fill:#f5aa19;}.cls-43{fill:#f4c21f;}.cls-44{fill:#6f4424;}.cls-45{fill:#62381d;}.cls-46{fill:#dfd3b4;}.cls-47{fill:#895f36;}.cls-48{fill:url(#Of_V_9);}.cls-49{fill:#70451f;}.cls-50{fill:url(#Of_V_8);}.cls-51{fill:#7d5228;}.cls-52{fill:#63391a;}.cls-53{fill:url(#Of_V_8-2);}.cls-54{fill:#7e4f22;}.cls-55{fill:#65361a;}.cls-56{fill:url(#Of_V_9-2);}.cls-57{fill:#70431e;}.cls-58{fill:url(#Of_V_8-3);}.cls-59{fill:url(#Of_V_8-4);}.cls-60{fill:url(#Of_V_11);}.cls-61{fill:url(#Of_V_8-5);}.cls-62{fill:url(#Of_V_13);}.cls-63{fill:#71461f;}.cls-64{fill:#673b1b;}.cls-65{fill:#5b2e16;}</style><clipPath id="clip-path" transform="translate(0 -2.76)"><path class="cls-1" d="M111.42,31.23C111.42,14,87.32,0,57.6,0S3.78,14,3.78,31.23A20.17,20.17,0,0,0,7.4,42.52,16.14,16.14,0,0,0,20.66,67.86a16.32,16.32,0,0,0,2.91-.27C31.8,74.25,44,78.47,57.6,78.47c24.16,0,43.85-13.3,44.82-29.95C108.1,43.57,111.42,37.63,111.42,31.23Z"/></clipPath><linearGradient id="Of_V_9" x1="297.98" y1="141.9" x2="302.22" y2="150.6" gradientTransform="translate(-289.43 -35.12) rotate(-9.56)" gradientUnits="userSpaceOnUse"><stop offset="0.04" stop-color="#daae7a"/><stop offset="0.04" stop-color="#daae7a"/><stop offset="0.39" stop-color="#debb92"/><stop offset="0.72" stop-color="#e1c3a0"/><stop offset="1" stop-color="#e2c6a5"/></linearGradient><linearGradient id="Of_V_8" x1="282.92" y1="134.08" x2="287.17" y2="142.78" gradientTransform="translate(-289.43 -35.12) rotate(-9.56)" gradientUnits="userSpaceOnUse"><stop offset="0.04" stop-color="#e6ba87"/><stop offset="0.04" stop-color="#e6ba87"/><stop offset="0.39" stop-color="#ebc89f"/><stop offset="0.72" stop-color="#eed0ad"/><stop offset="1" stop-color="#efd3b2"/></linearGradient><linearGradient id="Of_V_8-2" x1="283.33" y1="153.37" x2="285.77" y2="158.37" gradientTransform="translate(-274.18 -44.21) rotate(-9.08)" xlink:href="#Of_V_8"/><linearGradient id="Of_V_9-2" x1="20.7" y1="50.84" x2="26.99" y2="63.74" gradientTransform="matrix(1, 0, 0, 1, 0, 0)" xlink:href="#Of_V_9"/><linearGradient id="Of_V_8-3" x1="287.46" y1="140.45" x2="291.7" y2="149.16" xlink:href="#Of_V_8"/><linearGradient id="Of_V_8-4" x1="295.27" y1="145.15" x2="299.52" y2="153.86" xlink:href="#Of_V_8"/><linearGradient id="Of_V_11" x1="274.23" y1="148.03" x2="276.24" y2="152.16" gradientTransform="translate(-274.18 -44.21) rotate(-9.08)" gradientUnits="userSpaceOnUse"><stop offset="0.04" stop-color="#cda16c"/><stop offset="0.06" stop-color="#cda26d"/><stop offset="0.4" stop-color="#d2af85"/><stop offset="0.73" stop-color="#d5b693"/><stop offset="1" stop-color="#d6b998"/></linearGradient><linearGradient id="Of_V_8-5" x1="790.23" y1="453.12" x2="792.67" y2="458.12" gradientTransform="translate(-895.09 54.41) rotate(-29.47)" xlink:href="#Of_V_8"/><linearGradient id="Of_V_13" x1="792.25" y1="457.55" x2="794.69" y2="462.55" gradientTransform="translate(-895.09 54.41) rotate(-29.47)" gradientUnits="userSpaceOnUse"><stop offset="0.04" stop-color="#f3c794"/><stop offset="0.06" stop-color="#f3c895"/><stop offset="0.4" stop-color="#f8d5ad"/><stop offset="0.73" stop-color="#fbddbb"/><stop offset="1" stop-color="#fce0c0"/></linearGradient></defs><title>pot</title><g id="圖層_2" data-name="圖層 2"><g id="圖層_1-2" data-name="圖層 1"><path class="cls-2" d="M103.23,69.47c-1.8,17.86-20.43,31.77-45.63,31.77S13.66,86.66,12,69.47L10.3,52.27c0,18.19,21.17,32.93,47.3,32.93s47.3-14.74,47.3-32.93Z" transform="translate(0 -2.76)"/><circle class="cls-3" cx="57.85" cy="91.89" r="2.07"/><circle class="cls-3" cx="44.28" cy="89.95" r="2.07"/><circle class="cls-3" cx="30.72" cy="85.26" r="2.07"/><circle class="cls-3" cx="71.41" cy="92.71" r="2.07" transform="translate(-19.39 16.13) rotate(-13.28)"/><circle class="cls-3" cx="84.97" cy="88.02" r="2.07" transform="translate(-18.89 20.6) rotate(-14.1)"/><path class="cls-4" d="M105.07,72.09H95.79L92.57,41h11.57A9.92,9.92,0,0,1,114,49.9l1.14,11A10.12,10.12,0,0,1,105.07,72.09Z" transform="translate(0 -2.76)"/><path class="cls-4" d="M10.13,72.09h9.28L22.63,41H11.06A9.91,9.91,0,0,0,1.2,49.9l-1.15,11A10.13,10.13,0,0,0,10.13,72.09Z" transform="translate(0 -2.76)"/><path class="cls-4" d="M109,53.64a31.92,31.92,0,0,1-7.69,20.88C92.24,85,76.14,91.94,57.6,91.94S23,84.71,13.9,74.27A31.78,31.78,0,0,1,6.2,53.38v-5.3c0,19.76,23,35.78,51.4,35.78s51.4-16,51.4-35.78Z" transform="translate(0 -2.76)"/><ellipse class="cls-5" cx="57.6" cy="45.32" rx="51.4" ry="35.78"/><ellipse class="cls-6" cx="57.6" cy="44.48" rx="44.86" ry="31.23"/><g class="cls-7"><ellipse class="cls-8" cx="57.6" cy="44.48" rx="44.86" ry="31.23"/><path class="cls-9" d="M46.49,25.38c-.93,2.38-.32,4.33,1.55,5.07,0,3.88,1.53,6.28,3.71,6.13a5.35,5.35,0,0,0,6.85,3.2A6.76,6.76,0,0,0,63.4,33c1.76-.63,2.12-3,.88-6a5.61,5.61,0,0,0-.6-6.87c.75-2.85.1-4.92-1.65-5.4,0-3.7-1.28-5.6-3.15-4.93-.58-3.17-1.74-3.95-3-2-1.42-2.93-3-3-3.92-.14-1.79-2-2.92-1.29-2.91,1.83-2.11-.93-3,.66-2.34,4.09-1.9.24-2.24,2.26-.85,5.22C44.34,20.34,44.56,22.91,46.49,25.38Z" transform="translate(0 -2.76)"/><path class="cls-10" d="M59.57,37.32s-4.66-25.15-6.66-27.1C51.64,13,56.33,37.84,56.33,37.84Z" transform="translate(0 -2.76)"/><path class="cls-10" d="M55.26,18.53l5-4.13S56.18,20.79,56,20.62A13.4,13.4,0,0,1,55.26,18.53Z" transform="translate(0 -2.76)"/><path class="cls-10" d="M53.62,15.33l-3.75-2,3.8,4S54.05,14.81,53.62,15.33Z" transform="translate(0 -2.76)"/><path class="cls-9" d="M37,36.82c3.25,2.08,4.57,4.81,3.43,7.06,3.76,4.54,4.63,8.44,2.32,9.89C45.59,61,39.1,62.6,39.1,62.6s-6,2.17-11.42-4.32c-2.37.58-5-1.9-6.78-6.36a10,10,0,0,1-6.14-8.44c-3.52-2.75-4.91-5.65-3.64-7.51-3.58-4.34-4.21-7.47-1.69-8.09-2.53-4.11-2.14-5.89,1-4.59-1.45-4.47,0-5.69,3.77-3.09-.19-3.66,1.63-3.67,4.68,0,1.19-2.66,3.66-1.49,6.33,3,2.13-1.13,4.45,1,6,5.45C34.25,29.35,36.54,32.51,37,36.82Z" transform="translate(0 -2.76)"/><path class="cls-10" d="M35.73,60.46S15.74,27.74,15.82,24c3.95,2.26,23.64,34.68,23.64,34.68Z" transform="translate(0 -2.76)"/><path class="cls-10" d="M21.61,35.4l-9-1.06s10.35,4.37,10.37,4A21.63,21.63,0,0,0,21.61,35.4Z" transform="translate(0 -2.76)"/><path class="cls-10" d="M20.11,30.45l1.79-5.1L22,32.81S19.18,30.17,20.11,30.45Z" transform="translate(0 -2.76)"/><path class="cls-11" d="M51.51,26.63c2.7,2.23,3.44,5.13,2,7.47,2.73,4.85,2.83,9,.37,10.45,1.32,7.7-5.11,9.24-5.11,9.24s-6.09,2.2-10-4.72c-2.35.57-4.42-2.07-5.25-6.8-2.93-1.4-4.62-4.88-4.26-9-2.83-3-3.62-6-2.07-8-2.59-4.62-2.61-7.93-.11-8.54-1.64-4.37-.94-6.23,1.77-4.82-.56-4.73,1.05-6,4.14-3.19.5-3.87,2.22-3.85,4.43,0C39,6,41.09,7.3,42.79,12.08c2.22-1.16,4,1.08,4.65,5.82C50.24,18.72,51.83,22.08,51.51,26.63Z" transform="translate(0 -2.76)"/><path class="cls-10" d="M47.8,54.45S34.88,19.7,35.65,15.74c3.33,2.43,16,36.86,16,36.86Z" transform="translate(0 -2.76)"/><path class="cls-10" d="M44.59,43.78l-8.38-1.25s9,4.76,9.09,4.39A21.53,21.53,0,0,0,44.59,43.78Z" transform="translate(0 -2.76)"/><path class="cls-10" d="M37.94,23.77,31.62,23s6.81,3.23,6.89,2.86A8.88,8.88,0,0,0,37.94,23.77Z" transform="translate(0 -2.76)"/><path class="cls-10" d="M40.19,26l2.64-5.35-1.27,7.86S39.36,25.63,40.19,26Z" transform="translate(0 -2.76)"/><polygon class="cls-10" points="43.95 33.99 48.05 27.3 46 38.08 43.95 33.99"/><path class="cls-12" d="M68.14,9.71c-.79,1-2.33,2.15-2.88,1.92s.1-1.76.89-2.76a3.1,3.1,0,0,1,2.78-1.24C69.48,7.86,68.93,8.7,68.14,9.71Z" transform="translate(0 -2.76)"/><path class="cls-12" d="M65.85,16.76c-1.93.7-5.08,3.08-5.62,2.43s1.8-4,3.73-4.68,3.94-.74,4.47-.08S67.78,16.06,65.85,16.76Z" transform="translate(0 -2.76)"/><path class="cls-12" d="M61.06,14.6c0,1.56-1,4.38-.34,4.59s2.43-2.25,2.41-3.81-.52-3-1.13-3.18S61.05,13.05,61.06,14.6Z" transform="translate(0 -2.76)"/><path class="cls-12" d="M67.73,13c-1.7.55-4.45,2.47-4.9,1.89s1.69-3.39,3.39-3.94,3.44-.51,3.88.07S69.43,12.42,67.73,13Z" transform="translate(0 -2.76)"/><path class="cls-12" d="M63.58,10.94c0,2.2-.84,3.74-.32,3.93s2.17-1.87,2.21-3.22-.36-2.6-.88-2.8S63.61,9.59,63.58,10.94Z" transform="translate(0 -2.76)"/><path class="cls-12" d="M57.09,5.71c.25,1.7,1.29,4.07,2.08,4.17s1.06-2.12.81-3.81-1.61-3.21-2.41-3.31S56.85,4,57.09,5.71Z" transform="translate(0 -2.76)"/><path class="cls-12" d="M55.75,9.68c1.62,1.78,3.54,5.86,4.45,5.47s.3-5.07-1.31-6.85-3.66-2.9-4.57-2.51S54.14,7.91,55.75,9.68Z" transform="translate(0 -2.76)"/><path class="cls-12" d="M62,10.09c-1.42,2.59-1.52,4.92-2.26,4.8s-1.28-3.64-.42-5.23,2.16-2.8,2.9-2.68S62.82,8.5,62,10.09Z" transform="translate(0 -2.76)"/><path class="cls-12" d="M49.55,12.16c1.15.83,3.14,1.58,3.66,1.16s-.64-1.84-1.79-2.66-2.82-.89-3.33-.47S48.41,11.34,49.55,12.16Z" transform="translate(0 -2.76)"/><path class="cls-12" d="M54.15,19c2.27.15,6.34,1.72,6.71.86S57.74,16.16,55.47,16s-4.41.41-4.78,1.28S51.88,18.81,54.15,19Z" transform="translate(0 -2.76)"/><path class="cls-12" d="M58.58,15.21c.45,1.66,2.34,4.37,1.76,4.77s-3.26-1.65-3.72-3.31-.36-3.33.23-3.73S58.12,13.55,58.58,15.21Z" transform="translate(0 -2.76)"/><path class="cls-12" d="M51,15.51c2,.06,5.49,1.27,5.78.51S54,12.93,52,12.87s-3.81.5-4.11,1.26S49,15.44,51,15.51Z" transform="translate(0 -2.76)"/><path class="cls-12" d="M54.78,12.08c.72,2.33,2,3.72,1.55,4.09S53.44,14.84,53,13.41s-.41-2.87.08-3.24S54.34,10.65,54.78,12.08Z" transform="translate(0 -2.76)"/><path class="cls-12" d="M74,20.61c-1.41.08-3.49-.35-3.7-1s1.52-1.21,2.93-1.29,2.86.76,3.07,1.39S75.44,20.52,74,20.61Z" transform="translate(0 -2.76)"/><path class="cls-12" d="M66.51,23.89c-2-1.08-6.28-1.93-6.13-2.86S65,19.6,67,20.68s3.5,2.71,3.35,3.64S68.52,25,66.51,23.89Z" transform="translate(0 -2.76)"/><path class="cls-12" d="M64.78,18.35c-1.27,1.16-4.32,2.44-4,3.09s3.64.35,4.91-.81,2.09-2.62,1.81-3.27S66.06,17.2,64.78,18.35Z" transform="translate(0 -2.76)"/><path class="cls-12" d="M71,22.67c-1.7-1-5.32-1.87-5.16-2.67s4-1.09,5.75-.09,2.95,2.46,2.79,3.26S72.73,23.67,71,22.67Z" transform="translate(0 -2.76)"/><path class="cls-12" d="M69.66,17.74c-1.85,1.58-3.71,2.05-3.49,2.62s3.15.42,4.29-.54,1.89-2.2,1.67-2.78S70.8,16.77,69.66,17.74Z" transform="translate(0 -2.76)"/><path class="cls-12" d="M48.9,22c1.47.56,5,1.4,5.45.81s-2.4-2.4-3.87-3-3.28-.14-3.72.45S47.43,21.42,48.9,22Z" transform="translate(0 -2.76)"/><path class="cls-12" d="M53.53,28.23c2.46-.63,7.31-.4,7.39-1.44s-4.58-2.78-7-2.15-4.51,2-4.6,3S51.08,28.86,53.53,28.23Z" transform="translate(0 -2.76)"/><path class="cls-12" d="M56.26,24.45c0-1.91-1.29-5.37-.54-5.63s3,2.7,3.06,4.62-.57,3.68-1.31,3.94S56.28,26.37,56.26,24.45Z" transform="translate(0 -2.76)"/><path class="cls-12" d="M51,25.2c2.14-.47,6.26-.23,6.37-1.05s-3.9-2.25-6.05-1.79-4,1.51-4.07,2.33S48.86,25.66,51,25.2Z" transform="translate(0 -2.76)"/><path class="cls-12" d="M53.75,23c-1.36-2.34-3.14-3.52-2.7-4.05s3.46.72,4.31,2.15,1.17,3,.73,3.54S54.59,24.45,53.75,23Z" transform="translate(0 -2.76)"/><path class="cls-12" d="M62.43,24.14c.12,6.09-2,10.12-3,9.75s-.24-5-.36-11.08S57.7,7.59,58.62,8,62.31,18.05,62.43,24.14Z" transform="translate(0 -2.76)"/><path class="cls-13" d="M82.55,36.88c-2.09,3.27-5.74,5-7.14,4-1.07-.71-1.16-4.19.93-7.46l6.9-11.93c-2.09,3.27-2.28,6.76-.43,7.8s5-.78,7.14-4.05Z" transform="translate(0 -2.76)"/><ellipse class="cls-14" cx="86.59" cy="23.41" rx="7.03" ry="3.84" transform="translate(18.77 79.36) rotate(-56.01)"/><path class="cls-13" d="M88.67,25.17c-1.54,2.4-4,3.88-5.33,3.12s-1.14-3.48.39-5.88,4.61-4.75,6-4S90.21,22.76,88.67,25.17Z" transform="translate(0 -2.76)"/><path class="cls-15" d="M87.65,25.08c-1.13,1.77-2.86,2.75-3.87,2.19s-.9-2.44.23-4.21,3.8-3.86,4.8-3.3S88.77,23.32,87.65,25.08Z" transform="translate(0 -2.76)"/><path class="cls-13" d="M87.19,24.66c-.84,1.3-2.11,2-2.84,1.61s-.67-1.8.17-3.1,2.65-2.73,3.39-2.31S88,23.36,87.19,24.66Z" transform="translate(0 -2.76)"/><g class="cls-16"><path class="cls-15" d="M86.37,28.88,78.14,40.77a7.9,7.9,0,0,0,1.29-.71L87.61,28A8.17,8.17,0,0,1,86.37,28.88Z" transform="translate(0 -2.76)"/><path class="cls-15" d="M85.18,29.42,77.1,41.11a6.59,6.59,0,0,0,.65-.19l7.92-11.68Z" transform="translate(0 -2.76)"/><path class="cls-15" d="M83.78,29.62,76,41.16a2.52,2.52,0,0,0,.62,0l7.86-11.59A3.34,3.34,0,0,1,83.78,29.62Z" transform="translate(0 -2.76)"/><path class="cls-15" d="M81.6,25.74,74.78,37.45a7.67,7.67,0,0,0-.11,1.22L81.54,26.6A6.44,6.44,0,0,1,81.6,25.74Z" transform="translate(0 -2.76)"/><path class="cls-15" d="M82.81,29.34l0,0L75.16,40.69a.94.94,0,0,0,.25.24.83.83,0,0,0,.16.09l7.55-11.54Z" transform="translate(0 -2.76)"/><path class="cls-15" d="M81.94,28.44,74.82,40a2.35,2.35,0,0,0,.24.6l7.12-11.76A2.16,2.16,0,0,1,81.94,28.44Z" transform="translate(0 -2.76)"/></g><path class="cls-13" d="M67.62,31.29c-1.54,3.35-4.84,5.11-6.37,4.15-1.15-.72-1.77-4.27-.23-7.61l4.91-12.21c-1.54,3.35-1.19,6.92.79,8s4.82-.81,6.37-4.16Z" transform="translate(0 -2.76)"/><ellipse class="cls-14" cx="69.51" cy="17.53" rx="6.68" ry="4.04" transform="translate(26.38 72.03) rotate(-67.16)"/><path class="cls-13" d="M71.81,19.32c-1.13,2.46-3.28,4-4.73,3.2s-1.66-3.55-.53-6,3.79-4.86,5.24-4.08S73,16.86,71.81,19.32Z" transform="translate(0 -2.76)"/><path class="cls-15" d="M70.8,19.23C70,21,68.42,22.05,67.35,21.48s-1.25-2.5-.42-4.31,3.12-3.94,4.19-3.37S71.63,17.43,70.8,19.23Z" transform="translate(0 -2.76)"/><path class="cls-13" d="M70.28,18.8c-.61,1.34-1.75,2.07-2.53,1.66s-.93-1.84-.31-3.17,2.18-2.79,3-2.37S70.9,17.47,70.28,18.8Z" transform="translate(0 -2.76)"/><g class="cls-16"><path class="cls-15" d="M70.14,23.11,63.9,35.27a6.38,6.38,0,0,0,1.16-.73L71.21,22.2A6.81,6.81,0,0,1,70.14,23.11Z" transform="translate(0 -2.76)"/><path class="cls-15" d="M69.05,23.67,62.94,35.62a5.16,5.16,0,0,0,.6-.19l6-11.95A4.32,4.32,0,0,1,69.05,23.67Z" transform="translate(0 -2.76)"/><path class="cls-15" d="M67.71,23.87l-5.84,11.8a2.46,2.46,0,0,0,.61,0l5.91-11.85A2.61,2.61,0,0,1,67.71,23.87Z" transform="translate(0 -2.76)"/><path class="cls-15" d="M65,19.92l-4.87,12a9.85,9.85,0,0,0,.08,1.25L65.05,20.8A8.22,8.22,0,0,1,65,19.92Z" transform="translate(0 -2.76)"/><path class="cls-15" d="M66.72,23.59l0,0L61,35.2a1.23,1.23,0,0,0,.28.24l.17.1L67,23.73Z" transform="translate(0 -2.76)"/><path class="cls-15" d="M65.73,22.68,60.52,34.44a3.15,3.15,0,0,0,.33.61L66,23C65.91,22.92,65.82,22.8,65.73,22.68Z" transform="translate(0 -2.76)"/></g><path class="cls-17" d="M75,33c-1.9,3.34-5.41,5.1-6.84,4.16-1.08-.72-1.32-4.25.58-7.59L75,17.36c-1.91,3.34-1.94,6.89-.07,7.93s4.94-.82,6.84-4.15Z" transform="translate(0 -2.76)"/><ellipse class="cls-13" cx="78.42" cy="19.25" rx="6.96" ry="3.88" transform="translate(22.49 74.73) rotate(-59.95)"/><path class="cls-17" d="M80.54,21c-1.41,2.45-3.73,4-5.1,3.21s-1.29-3.53.11-6,4.33-4.86,5.7-4.09S81.94,18.57,80.54,21Z" transform="translate(0 -2.76)"/><path class="cls-18" d="M79.53,20.94c-1,1.81-2.69,2.81-3.7,2.25s-1-2.48,0-4.29,3.56-3.94,4.57-3.37S80.56,19.14,79.53,20.94Z" transform="translate(0 -2.76)"/><path class="cls-17" d="M79.06,20.52c-.76,1.32-2,2.06-2.73,1.65s-.73-1.83,0-3.15,2.49-2.79,3.23-2.37S79.81,19.19,79.06,20.52Z" transform="translate(0 -2.76)"/><g class="cls-16"><path class="cls-18" d="M78.45,24.81,70.88,36.93a7.69,7.69,0,0,0,1.25-.72l7.5-12.31A9.35,9.35,0,0,1,78.45,24.81Z" transform="translate(0 -2.76)"/><path class="cls-18" d="M77.3,25.37,69.88,37.28a4.44,4.44,0,0,0,.63-.19l7.26-11.91Z" transform="translate(0 -2.76)"/><path class="cls-18" d="M75.92,25.57,68.8,37.34a2.44,2.44,0,0,0,.61,0l7.21-11.82A2.76,2.76,0,0,1,75.92,25.57Z" transform="translate(0 -2.76)"/><path class="cls-18" d="M73.6,21.64,67.43,33.58a7.6,7.6,0,0,0-.05,1.24l6.21-12.3A6.51,6.51,0,0,1,73.6,21.64Z" transform="translate(0 -2.76)"/><path class="cls-18" d="M75,25.29l0,0L68,36.88a1.41,1.41,0,0,0,.25.24l.16.09,6.92-11.78A1.83,1.83,0,0,1,75,25.29Z" transform="translate(0 -2.76)"/><path class="cls-18" d="M74.07,24.39,67.58,36.12a2.66,2.66,0,0,0,.26.61l6.47-12A2.71,2.71,0,0,1,74.07,24.39Z" transform="translate(0 -2.76)"/></g><path class="cls-13" d="M68.75,37.06c-1.62,3.38-4.94,5.18-6.43,4.23-1.13-.72-1.65-4.29,0-7.67L67.49,21.3c-1.62,3.38-1.37,7,.57,8s4.81-.85,6.43-4.23Z" transform="translate(0 -2.76)"/><ellipse class="cls-14" cx="70.99" cy="23.19" rx="6.79" ry="3.97" transform="translate(20.79 75.71) rotate(-65.85)"/><path class="cls-13" d="M73.23,25c-1.19,2.48-3.37,4-4.79,3.26s-1.55-3.56-.36-6S72,17.26,73.38,18,74.42,22.48,73.23,25Z" transform="translate(0 -2.76)"/><path class="cls-15" d="M72.22,24.89c-.87,1.83-2.43,2.86-3.48,2.29s-1.18-2.5-.31-4.33,3.21-4,4.26-3.44S73.1,23.07,72.22,24.89Z" transform="translate(0 -2.76)"/><path class="cls-13" d="M71.72,24.46c-.64,1.35-1.79,2.1-2.56,1.69s-.87-1.84-.22-3.19,2.23-2.83,3-2.41S72.37,23.12,71.72,24.46Z" transform="translate(0 -2.76)"/><g class="cls-16"><path class="cls-15" d="M71.46,28.8,65,41.09a7.3,7.3,0,0,0,1.17-.74l6.43-12.47A6.63,6.63,0,0,1,71.46,28.8Z" transform="translate(0 -2.76)"/><path class="cls-15" d="M70.37,29.37,64,41.45a3.52,3.52,0,0,0,.6-.2l6.23-12.07A4.32,4.32,0,0,1,70.37,29.37Z" transform="translate(0 -2.76)"/><path class="cls-15" d="M69,29.59l-6.1,11.92a2,2,0,0,0,.6,0l6.18-12A3.14,3.14,0,0,1,69,29.59Z" transform="translate(0 -2.76)"/><path class="cls-15" d="M66.42,25.63,61.27,37.72a7.33,7.33,0,0,0,0,1.26l5.15-12.47A8.18,8.18,0,0,1,66.42,25.63Z" transform="translate(0 -2.76)"/><path class="cls-15" d="M68.06,29.31l0,0-6,11.77a1,1,0,0,0,.27.24l.16.09,5.9-11.93Z" transform="translate(0 -2.76)"/><path class="cls-15" d="M67.1,28.4,61.62,40.29a2.67,2.67,0,0,0,.31.61l5.44-12.14A2.42,2.42,0,0,1,67.1,28.4Z" transform="translate(0 -2.76)"/></g><path class="cls-14" d="M75.71,40.74c-2.09,3.27-5.74,5-7.14,4-1.07-.71-1.16-4.19.93-7.46l6.9-11.94c-2.09,3.27-2.28,6.77-.43,7.8s5-.77,7.14-4Z" transform="translate(0 -2.76)"/><ellipse class="cls-19" cx="79.75" cy="27.27" rx="7.03" ry="3.84" transform="translate(12.56 75.39) rotate(-56.01)"/><path class="cls-14" d="M81.83,29c-1.54,2.41-4,3.89-5.33,3.13s-1.14-3.48.39-5.89,4.61-4.75,6-4S83.37,26.62,81.83,29Z" transform="translate(0 -2.76)"/><path class="cls-20" d="M80.81,28.94c-1.13,1.77-2.86,2.75-3.87,2.19s-.9-2.45.23-4.22S81,23.06,82,23.62,81.94,27.17,80.81,28.94Z" transform="translate(0 -2.76)"/><path class="cls-14" d="M80.35,28.52c-.84,1.3-2.11,2-2.84,1.61s-.67-1.8.17-3.1,2.65-2.73,3.39-2.32S81.18,27.22,80.35,28.52Z" transform="translate(0 -2.76)"/><g class="cls-16"><path class="cls-20" d="M79.53,32.74,71.3,44.62a7.82,7.82,0,0,0,1.29-.7l8.18-12.07A8.93,8.93,0,0,1,79.53,32.74Z" transform="translate(0 -2.76)"/><path class="cls-20" d="M78.34,33.28,70.26,45a4.57,4.57,0,0,0,.65-.18l7.92-11.69A3.78,3.78,0,0,1,78.34,33.28Z" transform="translate(0 -2.76)"/><path class="cls-20" d="M76.94,33.47,69.16,45a2.52,2.52,0,0,0,.62,0l7.86-11.58A3.32,3.32,0,0,1,76.94,33.47Z" transform="translate(0 -2.76)"/><path class="cls-20" d="M74.76,29.6,67.94,41.31a7.67,7.67,0,0,0-.11,1.22L74.7,30.46A6.33,6.33,0,0,1,74.76,29.6Z" transform="translate(0 -2.76)"/><path class="cls-20" d="M76,33.19l0,0L68.32,44.55a.94.94,0,0,0,.25.24l.16.09,7.55-11.55A2.12,2.12,0,0,1,76,33.19Z" transform="translate(0 -2.76)"/><path class="cls-20" d="M75.1,32.3,68,43.81a2.14,2.14,0,0,0,.24.59l7.12-11.75A2.71,2.71,0,0,1,75.1,32.3Z" transform="translate(0 -2.76)"/></g><path class="cls-21" d="M98.61,32a45.25,45.25,0,0,0-12.44,2.67L82.43,26.3a31.05,31.05,0,0,1,11.76-1.64Z" transform="translate(0 -2.76)"/><path class="cls-22" d="M98.61,32a45.25,45.25,0,0,0-12.44,2.67l-.42,6.15c4.17-.45,8.75-1.49,12.1-2.09Z" transform="translate(0 -2.76)"/><polygon class="cls-23" points="85.75 38.05 86.17 31.9 82.43 23.54 81.3 29.01 85.75 38.05"/><path class="cls-24" d="M100.82,42.1a45.1,45.1,0,0,0-12.43,2.67l-3.74-8.36A31,31,0,0,1,96.4,34.77Z" transform="translate(0 -2.76)"/><path class="cls-22" d="M100.82,42.1a45.1,45.1,0,0,0-12.43,2.67L88,50.91c4.17-.44,8.75-1.48,12.1-2.08Z" transform="translate(0 -2.76)"/><polygon class="cls-23" points="87.96 48.15 88.39 42.01 84.65 33.65 83.51 39.12 87.96 48.15"/><path class="cls-24" d="M87.1,42.82a43.39,43.39,0,0,0-11.88,2.55l-3.57-8a29.76,29.76,0,0,1,11.23-1.57Z" transform="translate(0 -2.76)"/><path class="cls-22" d="M87.1,42.82a43.39,43.39,0,0,0-11.88,2.55l-.4,5.87c4-.42,8.36-1.42,11.56-2Z" transform="translate(0 -2.76)"/><polygon class="cls-23" points="74.82 48.48 75.22 42.62 71.65 34.63 70.57 39.85 74.82 48.48"/><path class="cls-24" d="M94.31,36.92a45.1,45.1,0,0,0-12.43,2.67l-3.74-8.36a30.78,30.78,0,0,1,11.75-1.64Z" transform="translate(0 -2.76)"/><path class="cls-25" d="M94.31,36.92a45.1,45.1,0,0,0-12.43,2.67l-.43,6.14c4.17-.44,8.76-1.48,12.1-2.08Z" transform="translate(0 -2.76)"/><polygon class="cls-26" points="81.45 42.97 81.88 36.83 78.14 28.47 77 33.94 81.45 42.97"/><path class="cls-27" d="M54.56,43s.2-7.62,3-7.87,9.15-.53,11.27,3.14,19.56-2.13,26.89,7.22S106.82,58.14,102,60.92,66,55.45,54.56,43Z" transform="translate(0 -2.76)"/><path class="cls-28" d="M92.86,47s-.25-3.54-7.14-4.29S72.39,41.47,75.8,42s13.58,3.1,13.9,5.18A16.71,16.71,0,0,1,92.86,47Z" transform="translate(0 -2.76)"/><path class="cls-28" d="M75,46.88s-5.85-5-12.74-5.79-3.1,7.22-2.7,3.79c.68-5.73,12,.17,12.28,2.25A15.77,15.77,0,0,1,75,46.88Z" transform="translate(0 -2.76)"/><path class="cls-29" d="M55.5,49.25S53.12,43,62.22,44,78.9,49.8,88.75,47.78s15.42,0,17.19,4.55-4,15.42-12.64,13.14S62.68,56.52,55.5,49.25Z" transform="translate(0 -2.76)"/><path class="cls-27" d="M66.2,46.08S71.57,51,80.79,50.37a121.45,121.45,0,0,0,14.47-1.7c-1.71,1.26-9.67,3.91-13.58,4S70.68,51.19,66.2,46.08Z" transform="translate(0 -2.76)"/><path class="cls-27" d="M88.69,53.09s8-2.65,9.41-.69-4,9.16-10.8,9c4.42-1.71,11-7.52,8.59-7.64S93.74,52.77,88.69,53.09Z" transform="translate(0 -2.76)"/><path class="cls-27" d="M59.12,48.48s12.38,6.38,18.07,7.07a62,62,0,0,1-6.76-.19s-9-4-11.81-6.19C58.62,48.92,59.12,48.48,59.12,48.48Z" transform="translate(0 -2.76)"/><path class="cls-30" d="M64.37,56s0-3.54,8.84-2.78S89.89,56,94.69,59.53s13.14,5.82,5.81,8.85S87.61,75.2,80.79,70.15,64.37,57.77,64.37,56Z" transform="translate(0 -2.76)"/><path class="cls-29" d="M70.37,58.78s9.66.12,14,3.72,3.41,6.57,8.78,5.75c-4,2.34-4.29,2.53-4.29,2.53s-1.84-.32-3.67-3S77.7,60.1,72.33,60.1C70.68,59.72,70.37,58.78,70.37,58.78Z" transform="translate(0 -2.76)"/><path class="cls-31" d="M49.74,5.76c-.06,1.38-.6,3.29-1.12,3.33s-.83-1.8-.77-3.19.87-2.56,1.4-2.6S49.8,4.37,49.74,5.76Z" transform="translate(0 -2.76)"/><path class="cls-31" d="M51.69,13.91c-1,1.65-2.12,5.57-2.85,5.18s-.73-4.84.32-6.49,2.5-2.68,3.23-2.29S52.75,12.25,51.69,13.91Z" transform="translate(0 -2.76)"/><path class="cls-31" d="M47.08,14.12c.82,1.54,1.56,4.83,2.11,4.73s.62-3.43-.19-5-1.92-2.71-2.47-2.61S46.27,12.58,47.08,14.12Z" transform="translate(0 -2.76)"/><path class="cls-31" d="M51.12,9.21c-1,1.38-2,4.66-2.61,4.29S48,9.3,49,7.91s2.25-2.21,2.88-1.84S52.08,7.82,51.12,9.21Z" transform="translate(0 -2.76)"/><path class="cls-31" d="M47,9.23c1.1,2.21,1.31,4.14,1.79,4.08s.62-2.94,0-4.3S47.19,6.6,46.7,6.66,46.37,7.87,47,9.23Z" transform="translate(0 -2.76)"/><path class="cls-31" d="M39.6,7.23c1.06,1.57,3,3.42,3.67,3.12S43,7.73,41.9,6.16s-2.83-2.39-3.46-2.09S38.55,5.67,39.6,7.23Z" transform="translate(0 -2.76)"/><path class="cls-31" d="M40.67,11.85c2.09,1,5.6,4.08,6.06,3.24S44.34,9.9,42.25,8.93s-4.17-1.08-4.64-.24S38.57,10.88,40.67,11.85Z" transform="translate(0 -2.76)"/><path class="cls-31" d="M45.41,9.19c.3,3.28,1.42,5.65.82,5.89s-2.81-3-3-5S43.37,6.24,44,6,45.22,7.18,45.41,9.19Z" transform="translate(0 -2.76)"/><path class="cls-31" d="M37.41,17.37c1.26.26,3.11,0,3.27-.65S39.26,15.21,38,15a2.4,2.4,0,0,0-2.68,1.18C35.15,16.8,36.14,17.12,37.41,17.37Z" transform="translate(0 -2.76)"/><path class="cls-31" d="M44.27,21.88c1.74-1,5.53-1.41,5.35-2.46s-4.17-2.11-5.91-1.15-3,2.59-2.84,3.63S42.53,22.84,44.27,21.88Z" transform="translate(0 -2.76)"/><path class="cls-31" d="M45.58,16c1.18,1.42,4,3.19,3.74,3.88s-3.24,0-4.42-1.46-2-3.13-1.76-3.82S44.39,14.53,45.58,16Z" transform="translate(0 -2.76)"/><path class="cls-31" d="M40.18,20c1.48-.91,4.67-1.45,4.49-2.35S41,16,39.54,16.88,37,19.26,37.18,20.16,38.7,20.91,40.18,20Z" transform="translate(0 -2.76)"/><path class="cls-31" d="M41.19,14.71c1.72,2,3.41,2.7,3.23,3.31s-2.79.1-3.85-1.1S38.78,14.27,39,13.65,40.13,13.51,41.19,14.71Z" transform="translate(0 -2.76)"/><path class="cls-31" d="M59.66,13.69c-1,.78-2.73,1.38-3.21.86s.49-2,1.48-2.74a2.49,2.49,0,0,1,3-.13C61.37,12.2,60.65,12.91,59.66,13.69Z" transform="translate(0 -2.76)"/><path class="cls-31" d="M55.85,20.67c-2-.08-5.59,1.18-6,.19s2.64-3.7,4.66-3.61,4,1,4.32,2S57.87,20.76,55.85,20.67Z" transform="translate(0 -2.76)"/><path class="cls-31" d="M51.73,16c-.33,1.78-1.9,4.56-1.36,5.07s2.84-1.45,3.18-3.22.17-3.64-.37-4.15S52.07,14.24,51.73,16Z" transform="translate(0 -2.76)"/><path class="cls-31" d="M58.53,17.22c-1.77-.15-4.86.77-5.15-.1s2.39-3.09,4.16-2.93,3.42,1,3.72,1.87S60.29,17.38,58.53,17.22Z" transform="translate(0 -2.76)"/><path class="cls-31" d="M55,13c-.54,2.49-1.66,3.88-1.21,4.34s2.53-1.13,2.87-2.65.24-3.13-.21-3.6S55.32,11.47,55,13Z" transform="translate(0 -2.76)"/><path class="cls-31" d="M42,27.47c1.36-.17,4.38-1.09,4.39-1.89s-3-1.2-4.35-1a3,3,0,0,0-2.49,2.28C39.53,27.64,40.62,27.63,42,27.47Z" transform="translate(0 -2.76)"/><path class="cls-31" d="M48.59,31.4c1.47-1.84,5.14-4,4.66-5.08s-4.78-.51-6.25,1.33-2.28,4.19-1.81,5.27S47.12,33.23,48.59,31.4Z" transform="translate(0 -2.76)"/><path class="cls-31" d="M48.64,26.29c-1-1.89-3.7-4.71-3.3-5.34S49,22.15,50,24,51.44,28,51,28.61,49.64,28.19,48.64,26.29Z" transform="translate(0 -2.76)"/><path class="cls-31" d="M45.18,29.63c1.33-1.52,4.47-3.32,4.12-4.19s-4-.31-5.34,1.21S41.83,30.1,42.17,31,43.85,31.15,45.18,29.63Z" transform="translate(0 -2.76)"/><path class="cls-31" d="M46.07,26.1c-2.21-1.65-4.12-2-4.06-2.69s2.9-1,4.26,0,2.4,2.43,2.35,3.17S47.42,27.12,46.07,26.1Z" transform="translate(0 -2.76)"/><path class="cls-31" d="M53,22.94c3.22,6,3.72,11.07,2.86,11.16s-2.74-4.85-6-10.85S41,8.8,41.87,8.72,49.77,16.94,53,22.94Z" transform="translate(0 -2.76)"/><path class="cls-31" d="M46.28,43.89c1.37-.16,4.39-1.08,4.4-1.89s-3-1.19-4.35-1a3,3,0,0,0-2.49,2.28C43.83,44.06,44.92,44.06,46.28,43.89Z" transform="translate(0 -2.76)"/><path class="cls-31" d="M52.88,47.82c1.48-1.83,5.14-4,4.67-5.08s-4.79-.5-6.26,1.33-2.28,4.2-1.8,5.28S51.41,49.66,52.88,47.82Z" transform="translate(0 -2.76)"/><path class="cls-31" d="M52.93,42.72c-1-1.89-3.7-4.71-3.29-5.34s3.62,1.19,4.62,3.08S55.74,44.4,55.33,45,53.93,44.61,52.93,42.72Z" transform="translate(0 -2.76)"/><path class="cls-31" d="M49.48,46.05c1.33-1.52,4.46-3.32,4.12-4.18s-4-.32-5.35,1.2-2.13,3.46-1.78,4.32S48.15,47.57,49.48,46.05Z" transform="translate(0 -2.76)"/><path class="cls-31" d="M50.36,42.53c-2.2-1.66-4.11-2-4-2.69s2.9-1,4.25,0S53,42.27,52.92,43,51.71,43.54,50.36,42.53Z" transform="translate(0 -2.76)"/><path class="cls-32" d="M63.27,52.14a8.6,8.6,0,0,1-.17,1.24c-.07.42-.5.72-.63,1.11s0,.87-.19,1.24-.19.87-.44,1.21-.72.5-1,.8-.75.35-1.1.59a7,7,0,0,1-1,.7c-.37.19-.6.68-1,.81s-.76.58-1.18.65a9.69,9.69,0,0,1-1.32,0c-.43,0-.83-.45-1.24-.51s-.9.1-1.3,0-.58-.77-1-1-1,.08-1.37-.17-.51-.72-.8-1a8.26,8.26,0,0,1-.79-1,7.32,7.32,0,0,1-.51-1.14c-.19-.37-.7-.61-.83-1a7.85,7.85,0,0,1-.07-1.29,7.54,7.54,0,0,1,.12-1.24,6.89,6.89,0,0,1,.12-1.21,6.7,6.7,0,0,1,.34-1.16c.13-.4-.31-1-.12-1.41a8.55,8.55,0,0,1,.61-1.16c.24-.34.85-.41,1.15-.71s.32-1,.66-1.21,1,0,1.42-.14a7.71,7.71,0,0,1,1.09-.6,8.36,8.36,0,0,1,1.22-.3,8.57,8.57,0,0,1,1.25-.07c.43,0,.92-.49,1.33-.43s.7.82,1.09.95a7.42,7.42,0,0,1,1.09.55,6.84,6.84,0,0,1,1,.69,8,8,0,0,1,1,.66c.29.3,1,.26,1.25.6s-.25,1.13-.05,1.51a7.1,7.1,0,0,1,.55,1.06c.13.4.5.71.57,1.13A8.55,8.55,0,0,1,63.27,52.14Z" transform="translate(0 -2.76)"/><path class="cls-33" d="M53.4,46.78l-.1,1.32L52.39,48l-.18-1,1.15-.26S53.4,46.76,53.4,46.78Z" transform="translate(0 -2.76)"/><polygon class="cls-33" points="54.1 46.38 52.59 46.7 53.19 47.43 54.18 47.98 54.1 46.38"/><polygon class="cls-33" points="57.06 48.06 55.06 49.66 55.86 50.77 57.46 50.22 57.06 48.06"/><polygon class="cls-33" points="51.82 51.38 50.8 51.5 51.58 52.55 52.53 52.66 51.82 51.38"/><polygon class="cls-33" points="57.78 45.1 56.82 45.9 56.98 46.54 58.18 46.62 59.22 45.9 58.41 44.94 57.78 45.1"/><polygon class="cls-34" points="49.44 46.4 49.18 47.4 49.54 48.06 50.4 47.92 50.08 46.5 49.44 46.4"/><polygon class="cls-34" points="52.8 49.26 52.34 49.9 53.54 50.7 53.62 49.26 52.8 49.26"/><polygon class="cls-34" points="54.18 53.49 52.74 54.05 52.11 54.69 53.22 55.25 54.1 54.53 54.18 53.49"/><polygon class="cls-34" points="55.7 42.31 54.98 43.19 55.38 43.74 56.58 43.66 55.7 42.31"/><path class="cls-33" d="M63.09,50.89c-.07-.42-.44-.73-.57-1.13A7.1,7.1,0,0,0,62,48.7c-.2-.38.3-1.17.05-1.51s-1-.3-1.25-.6a8,8,0,0,0-1-.66l-.36-.27L59.72,47l.18,1.14.77.48-.23.78-.78,1.2.18.84-.36,1-.9.65-.09,1v1.14l-1.2.48-.45.87h-.62a10,10,0,0,1-1.2-.78c-.06-.12-.6.48-.6.48l-1.85-.21-.81.45-.93.45,1.26,2.39c.18.24.34.52.59.6s.88,0,1.3,0,.81.51,1.24.51a9.69,9.69,0,0,0,1.32,0c.42-.07.79-.53,1.18-.65s.64-.62,1-.81a7,7,0,0,0,1-.7c.35-.24.81-.29,1.1-.59s.77-.46,1-.8.24-.83.44-1.21.06-.83.19-1.24.56-.69.63-1.11a8.6,8.6,0,0,0,.17-1.24A8.55,8.55,0,0,0,63.09,50.89Z" transform="translate(0 -2.76)"/><path class="cls-35" d="M59.93,54.05s.74.39.74.51a4.47,4.47,0,0,1-.35.75l-.75-.09Z" transform="translate(0 -2.76)"/><polygon class="cls-35" points="61.36 48.57 60.65 48.72 60.65 49.5 62.02 50.07 61.36 48.57"/><path class="cls-35" d="M58.4,58.07s-1-.15-1,0a6.22,6.22,0,0,1-.18.78l.66.18Z" transform="translate(0 -2.76)"/><polygon class="cls-35" points="56.15 56.33 55.25 55.22 54.74 55.22 54.44 55.49 55.7 56.69 56.15 56.33"/><path class="cls-35" d="M56.36,55l-.36.48s.3.24.39.24.57-.54.57-.54Z" transform="translate(0 -2.76)"/><polygon class="cls-32" points="60.28 53.87 59.57 53.51 59.42 54.38 60.11 54.56 60.28 53.87"/><path class="cls-36" d="M73.27,61.44a8.55,8.55,0,0,1-.17,1.25c-.07.42-.5.71-.63,1.11s0,.86-.19,1.23-.19.88-.44,1.22-.72.49-1,.79-.75.35-1.09.6a7.72,7.72,0,0,1-1,.69c-.37.19-.6.68-1,.81s-.76.58-1.18.65a9.69,9.69,0,0,1-1.32,0c-.43,0-.83-.44-1.24-.51a8,8,0,0,1-1.3,0c-.4-.13-.58-.76-1-1s-1,.07-1.37-.17-.51-.73-.8-1a7.43,7.43,0,0,1-.79-1A7.77,7.77,0,0,1,58.26,65c-.19-.37-.7-.61-.83-1a7.67,7.67,0,0,1-.07-1.28,7.77,7.77,0,0,1,.12-1.25,6.89,6.89,0,0,1,.12-1.21,6.7,6.7,0,0,1,.34-1.16c.13-.4-.31-1-.12-1.4a8.11,8.11,0,0,1,.61-1.17c.24-.34.85-.41,1.15-.7s.32-1,.66-1.22,1,.05,1.42-.14a7.65,7.65,0,0,1,1.09-.59A8.39,8.39,0,0,1,64,53.54a8.57,8.57,0,0,1,1.25-.07c.43,0,.92-.49,1.33-.43s.7.82,1.09,1a7,7,0,0,1,1.09.56,6.77,6.77,0,0,1,1,.68,8,8,0,0,1,1,.67c.29.29,1,.26,1.25.6s-.25,1.13,0,1.5a7.73,7.73,0,0,1,.55,1.07c.13.39.5.7.57,1.12A8.55,8.55,0,0,1,73.27,61.44Z" transform="translate(0 -2.76)"/><path class="cls-32" d="M63.4,56.09l-.1,1.31-.91-.07-.18-1,1.15-.26S63.4,56.07,63.4,56.09Z" transform="translate(0 -2.76)"/><polygon class="cls-32" points="64.1 55.68 62.59 56 63.2 56.73 64.18 57.28 64.1 55.68"/><polygon class="cls-32" points="67.06 57.36 65.06 58.96 65.86 60.08 67.46 59.52 67.06 57.36"/><polygon class="cls-32" points="61.82 60.69 60.8 60.81 61.58 61.86 62.54 61.97 61.82 60.69"/><polygon class="cls-32" points="67.78 54.41 66.82 55.2 66.98 55.84 68.18 55.92 69.22 55.2 68.41 54.25 67.78 54.41"/><polygon class="cls-37" points="59.44 55.7 59.18 56.7 59.54 57.36 60.4 57.22 60.08 55.8 59.44 55.7"/><polygon class="cls-37" points="62.8 58.56 62.35 59.2 63.54 60 63.62 58.56 62.8 58.56"/><polygon class="cls-37" points="64.18 62.8 62.74 63.35 62.11 63.99 63.23 64.55 64.1 63.83 64.18 62.8"/><polygon class="cls-37" points="65.7 51.61 64.98 52.49 65.38 53.05 66.58 52.97 65.7 51.61"/><path class="cls-32" d="M73.09,60.19c-.07-.42-.44-.73-.57-1.12A7.73,7.73,0,0,0,72,58c-.2-.37.3-1.16,0-1.5s-1-.31-1.25-.6a8,8,0,0,0-1-.67L69.37,55l.35,1.33.18,1.13.78.48-.24.78-.78,1.2.18.84-.36,1-.9.66-.09,1v1.14l-1.2.47-.45.87h-.62a10,10,0,0,1-1.2-.78c-.06-.12-.6.48-.6.48l-1.85-.21-.81.45-.93.45,1.26,2.39c.18.25.34.52.59.6a8,8,0,0,0,1.3,0c.41.07.81.51,1.24.51a9.69,9.69,0,0,0,1.32,0c.42-.07.79-.52,1.18-.65s.64-.62,1-.81a7.72,7.72,0,0,0,1-.69c.34-.25.8-.3,1.09-.6s.77-.45,1-.79.24-.84.44-1.22.06-.83.19-1.23.56-.69.63-1.11a8.55,8.55,0,0,0,.17-1.25A8.55,8.55,0,0,0,73.09,60.19Z" transform="translate(0 -2.76)"/><path class="cls-33" d="M69.93,63.36s.75.39.75.51a4.41,4.41,0,0,1-.36.75l-.75-.09Z" transform="translate(0 -2.76)"/><polygon class="cls-33" points="71.36 57.87 70.64 58.02 70.64 58.8 72.02 59.37 71.36 57.87"/><path class="cls-33" d="M68.4,67.37s-1-.15-1,0a6.22,6.22,0,0,1-.18.78l.66.18Z" transform="translate(0 -2.76)"/><polygon class="cls-33" points="66.15 65.63 65.25 64.52 64.74 64.52 64.44 64.79 65.7 65.99 66.15 65.63"/><path class="cls-33" d="M66.36,64.29l-.36.48a1.48,1.48,0,0,0,.39.23c.09,0,.57-.53.57-.53Z" transform="translate(0 -2.76)"/><polygon class="cls-36" points="70.29 63.17 69.57 62.81 69.42 63.68 70.11 63.86 70.29 63.17"/><path class="cls-8" d="M84.31,69.76A8.41,8.41,0,0,1,84.14,71c-.07.42-.5.72-.63,1.11s0,.87-.19,1.24-.19.88-.44,1.21-.72.5-1,.8-.76.35-1.1.6a8.85,8.85,0,0,1-1,.69c-.37.19-.6.68-1,.81s-.75.58-1.18.65a9.69,9.69,0,0,1-1.32,0c-.42,0-.83-.45-1.24-.51s-.9.1-1.3,0-.58-.77-1-1-1,.08-1.37-.17-.51-.72-.8-1a8.26,8.26,0,0,1-.79-1,7.66,7.66,0,0,1-.51-1.13c-.19-.38-.7-.62-.83-1A7.85,7.85,0,0,1,68.4,71a7.54,7.54,0,0,1,.12-1.24,6.89,6.89,0,0,1,.12-1.21A6.7,6.7,0,0,1,69,67.39c.13-.4-.31-1-.12-1.41a8.55,8.55,0,0,1,.61-1.16c.24-.34.85-.41,1.15-.7s.32-1,.66-1.22,1,.05,1.42-.14a7.71,7.71,0,0,1,1.09-.6,8.36,8.36,0,0,1,1.22-.3,8.57,8.57,0,0,1,1.25-.07c.43,0,.92-.49,1.33-.43s.7.82,1.09,1a7,7,0,0,1,1.09.55,7.72,7.72,0,0,1,1,.69,9.17,9.17,0,0,1,1,.66c.29.3,1,.26,1.25.61s-.25,1.13,0,1.5a6.75,6.75,0,0,1,.55,1.07c.13.39.5.7.57,1.12A7.38,7.38,0,0,1,84.31,69.76Z" transform="translate(0 -2.76)"/><polygon class="cls-38" points="72.41 71.05 72.91 68.98 71.88 68.19 70.7 69.29 72.41 71.05"/><polygon class="cls-38" points="74.09 68.41 72.88 67.44 73.21 66.62 74.89 67.02 74.09 68.41"/><polygon class="cls-38" points="77.49 68.25 76.43 65.92 77.64 65.28 78.82 66.5 77.49 68.25"/><polygon class="cls-38" points="73.97 62.98 72.47 62.23 74.01 60.94 75.19 62.16 73.97 62.98"/><polygon class="cls-38" points="78.54 64.56 78.04 63.41 78.47 62.91 79.58 63.38 80.18 64.49 79.15 64.24 78.54 64.56"/><polygon class="cls-39" points="70.47 64.46 70.83 63.8 71.89 63.24 72.21 64.21 71.37 65.06 70.47 64.46"/><polygon class="cls-39" points="73.86 65.52 74.11 64.48 75.54 64.31 74.96 65.63 73.86 65.52"/><polygon class="cls-39" points="77.37 62.1 76.34 60.95 76.05 60.09 77.3 60.1 77.77 61.14 77.37 62.1"/><polygon class="cls-39" points="73.69 72.77 73.44 71.66 74.05 71.34 75.08 71.95 73.69 72.77"/><path class="cls-38" d="M84.13,68.51c-.07-.42-.44-.73-.57-1.12A6.75,6.75,0,0,0,83,66.32c-.2-.37.3-1.17,0-1.5s-1-.31-1.25-.61a9.17,9.17,0,0,0-1-.66l-.36-.27.35,1.32.18,1.14.78.48-.24.78-.78,1.2.18.84-.36,1-.9.66-.09,1v1.14l-1.2.48-.45.87-.3,1.17s-.84.66-.9.54-.39.24-.39.24l-.45.72H74.55l-.89.33L73.13,77c.18.24.34.52.59.6.4.13.88,0,1.3,0s.82.51,1.24.51a9.69,9.69,0,0,0,1.32,0c.43-.07.79-.52,1.18-.65s.64-.62,1-.81a8.85,8.85,0,0,0,1-.69c.34-.25.8-.3,1.1-.6s.76-.45,1-.8.24-.83.44-1.21.06-.83.19-1.24.56-.69.63-1.11a8.41,8.41,0,0,0,.17-1.24A7.38,7.38,0,0,0,84.13,68.51Z" transform="translate(0 -2.76)"/><path class="cls-36" d="M81.57,72.57s.74.39.74.51a4.47,4.47,0,0,1-.35.75l-.75-.09Z" transform="translate(0 -2.76)"/><polygon class="cls-36" points="81.81 67.63 81.09 67.78 81.09 68.56 82.47 69.13 81.81 67.63"/><path class="cls-36" d="M79.44,75.69s-1-.15-1,0a6.22,6.22,0,0,1-.18.78l.66.18Z" transform="translate(0 -2.76)"/><polygon class="cls-36" points="77.19 73.95 76.29 72.84 75.78 72.84 75.86 74.41 76.74 74.31 77.19 73.95"/><path class="cls-36" d="M77.4,72.6l-.36.48s.3.24.39.24.57-.54.57-.54Z" transform="translate(0 -2.76)"/><polygon class="cls-8" points="80.37 71.43 79.65 71.07 79.5 71.94 80.19 72.12 80.37 71.43"/><polygon class="cls-8" points="82.88 64.84 82.17 64.48 82.02 65.35 82.7 65.53 82.88 64.84"/><path class="cls-40" d="M41,41.56a4.35,4.35,0,0,1-5.34,1.13,4.35,4.35,0,0,1-5,2.28,5.34,5.34,0,0,1-2.51-2.34,4,4,0,0,0,2.91,3.55,4.33,4.33,0,0,0,5-2.28,4.55,4.55,0,0,0,5.34-1.13c1.34-1.38.87-3.43.21-4.59A5.38,5.38,0,0,1,41,41.56Z" transform="translate(0 -2.76)"/><path class="cls-40" d="M24.77,38.43c-.12-.35.29.89.41,1.25a3.52,3.52,0,0,0,2.87,2.24,3.33,3.33,0,0,1,.14-1.16A3.59,3.59,0,0,1,24.77,38.43Z" transform="translate(0 -2.76)"/><path class="cls-40" d="M41.78,32.75a3.59,3.59,0,0,1-1.34,4,3.26,3.26,0,0,1,.81.85,3.55,3.55,0,0,0,1-3.52C42.09,33.67,41.67,32.41,41.78,32.75Z" transform="translate(0 -2.76)"/><path class="cls-41" d="M41.26,31.79A4.11,4.11,0,0,0,36,31.06a3.83,3.83,0,0,0-4.83-1.9,3.84,3.84,0,0,0-2.74,4.41,4.11,4.11,0,0,0-3.8,3.74,3.46,3.46,0,0,0,3.59,3.45A3.32,3.32,0,0,0,30.68,45a4.35,4.35,0,0,0,5-2.28A4.35,4.35,0,0,0,41,41.56a3.32,3.32,0,0,0-.53-4.86A3.47,3.47,0,0,0,41.26,31.79Z" transform="translate(0 -2.76)"/><ellipse class="cls-42" cx="33.69" cy="36.84" rx="4.23" ry="3.76" transform="translate(-9.89 9.72) rotate(-18.35)"/><ellipse class="cls-43" cx="33.69" cy="36.84" rx="2.1" ry="1.87" transform="translate(-9.88 9.72) rotate(-18.35)"/><path class="cls-40" d="M45.57,41.13a4.35,4.35,0,0,1-4.64-2.88,4.34,4.34,0,0,1-5.15-1.79A5.3,5.3,0,0,1,35.59,33a4,4,0,0,0-.36,4.57,4.32,4.32,0,0,0,5.15,1.79A4.56,4.56,0,0,0,45,42.28c1.92-.07,3-1.87,3.33-3.17A5.38,5.38,0,0,1,45.57,41.13Z" transform="translate(0 -2.76)"/><path class="cls-40" d="M36.05,27.65c.15-.33-.41.84-.57,1.19A3.51,3.51,0,0,0,36,32.45a3.13,3.13,0,0,1,.9-.74A3.6,3.6,0,0,1,36.05,27.65Z" transform="translate(0 -2.76)"/><path class="cls-40" d="M52.25,35.34a3.61,3.61,0,0,1-3.7,1.92,3.29,3.29,0,0,1,0,1.17,3.52,3.52,0,0,0,3.12-1.88C51.84,36.21,52.41,35,52.25,35.34Z" transform="translate(0 -2.76)"/><path class="cls-41" d="M52.54,34.28a4.09,4.09,0,0,0-3.31-4.18A4.05,4.05,0,0,0,42,26.67a4.09,4.09,0,0,0-5.33.06,3.48,3.48,0,0,0,.2,5,3.31,3.31,0,0,0-1.12,4.75,4.34,4.34,0,0,0,5.15,1.79,4.35,4.35,0,0,0,4.64,2.88,3.32,3.32,0,0,0,3-3.87A3.47,3.47,0,0,0,52.54,34.28Z" transform="translate(0 -2.76)"/><ellipse class="cls-42" cx="43.59" cy="32.68" rx="3.76" ry="4.23" transform="translate(-4.66 55.22) rotate(-64.53)"/><ellipse class="cls-43" cx="43.59" cy="32.68" rx="1.87" ry="2.1" transform="translate(-4.66 55.21) rotate(-64.53)"/><path class="cls-40" d="M57.12,42.5a4.35,4.35,0,0,1-5-2.18,4.35,4.35,0,0,1-5.36-1,5.33,5.33,0,0,1-.68-3.36,4,4,0,0,0,.3,4.58,4.35,4.35,0,0,0,5.36,1,4.56,4.56,0,0,0,5,2.18c1.89-.35,2.71-2.29,2.84-3.61A5.33,5.33,0,0,1,57.12,42.5Z" transform="translate(0 -2.76)"/><path class="cls-40" d="M45.76,30.53c.1-.35-.29.9-.39,1.27a3.5,3.5,0,0,0,1,3.49,3.24,3.24,0,0,1,.79-.87A3.58,3.58,0,0,1,45.76,30.53Z" transform="translate(0 -2.76)"/><path class="cls-40" d="M62.9,35.8a3.58,3.58,0,0,1-3.38,2.44,3.61,3.61,0,0,1,.16,1.16,3.55,3.55,0,0,0,2.82-2.31C62.62,36.73,63,35.46,62.9,35.8Z" transform="translate(0 -2.76)"/><path class="cls-41" d="M63,34.71a4.09,4.09,0,0,0-3.87-3.66,4.05,4.05,0,0,0-7.62-2.35,4.1,4.1,0,0,0-5.27.83,3.47,3.47,0,0,0,.92,4.89,3.32,3.32,0,0,0-.43,4.87,4.35,4.35,0,0,0,5.36,1,4.35,4.35,0,0,0,5,2.18,3.32,3.32,0,0,0,2.4-4.26A3.47,3.47,0,0,0,63,34.71Z" transform="translate(0 -2.76)"/><ellipse class="cls-42" cx="53.94" cy="34.42" rx="3.76" ry="4.23" transform="translate(5.12 73.03) rotate(-72.82)"/><ellipse class="cls-43" cx="53.94" cy="34.42" rx="1.87" ry="2.1" transform="translate(5.12 73.03) rotate(-72.82)"/><ellipse class="cls-44" cx="39.81" cy="48.95" rx="11.65" ry="10.63" transform="matrix(0.97, -0.26, 0.26, 0.97, -11.25, 9.12)"/><path class="cls-45" d="M46,39.66a8.15,8.15,0,0,1,3.5,4.71c1.27,4.8-2.26,9.9-7.88,11.4s-11.23-1.18-12.5-6A8.09,8.09,0,0,1,29.82,44a10.1,10.1,0,0,0-1.26,8c1.51,5.67,7.77,8.93,14,7.28s10-7.6,8.52-13.27A10.13,10.13,0,0,0,46,39.66Z" transform="translate(0 -2.76)"/><path class="cls-46" d="M42,45.92a19,19,0,0,0,2.68-4.39A20.67,20.67,0,0,0,40,44.05a17,17,0,0,0-2.61-4.26,17.29,17.29,0,0,0-.14,5,20.72,20.72,0,0,0-5.29.13,18.84,18.84,0,0,0,4.5,2.47,19,19,0,0,0-2.67,4.39,20.5,20.5,0,0,0,4.65-2.52A17.33,17.33,0,0,0,41,53.51a17.29,17.29,0,0,0,.14-5,20.72,20.72,0,0,0,5.29-.13A18.84,18.84,0,0,0,42,45.92Z" transform="translate(0 -2.76)"/><path class="cls-8" d="M59.77,62.85a8.55,8.55,0,0,1-.17,1.25c-.07.42-.49.71-.62,1.11s0,.86-.2,1.24-.19.87-.44,1.21-.72.5-1,.79-.76.35-1.1.6a6.84,6.84,0,0,1-1,.69c-.37.19-.6.68-1,.81s-.76.59-1.18.65a8.42,8.42,0,0,1-1.33,0c-.42,0-.83-.45-1.24-.52s-.9.11-1.29,0-.59-.77-1-1-1,.07-1.36-.17-.51-.73-.81-1a8.26,8.26,0,0,1-.79-1,8.4,8.4,0,0,1-.51-1.14c-.19-.37-.7-.61-.83-1a8.91,8.91,0,0,1-.07-1.28A7.77,7.77,0,0,1,44,62.85a6.89,6.89,0,0,1,.12-1.21,8.5,8.5,0,0,1,.34-1.15c.14-.41-.31-1-.12-1.41a8.11,8.11,0,0,1,.61-1.17c.25-.34.86-.4,1.15-.7s.32-1,.66-1.22,1,.06,1.42-.14a7.25,7.25,0,0,1,1.1-.59,6.91,6.91,0,0,1,1.21-.3,7.43,7.43,0,0,1,1.25-.07c.43,0,.92-.5,1.33-.43s.7.81,1.09.94a9.3,9.3,0,0,1,2.09,1.24,7.39,7.39,0,0,1,1,.67c.3.29,1,.26,1.26.6s-.25,1.13-.06,1.51A7.1,7.1,0,0,1,59,60.48c.13.4.51.7.57,1.12A7.38,7.38,0,0,1,59.77,62.85Z" transform="translate(0 -2.76)"/><polygon class="cls-38" points="52.77 52.66 52.29 54.74 51.45 54.4 50.46 53.46 52.77 52.66"/><polygon class="cls-38" points="50.61 57.1 49.09 57.42 49.01 58.3 50.69 58.69 50.61 57.1"/><polygon class="cls-38" points="53.56 58.77 51.56 60.37 52.36 61.49 53.96 60.93 53.56 58.77"/><polygon class="cls-38" points="48.05 61.89 46.69 62.37 47.17 63.73 48.77 63.17 48.05 61.89"/><polygon class="cls-38" points="54.28 55.82 53.32 56.62 53.48 57.26 54.68 57.34 54.93 56.89 54.68 56.38 54.28 55.82"/><polygon class="cls-39" points="46.66 58.3 46.18 59.28 46.93 59.89 47.17 59.19 47.65 57.94 46.66 58.3"/><polygon class="cls-39" points="49.09 59.57 48.85 60.61 50.05 61.41 50.13 59.97 49.09 59.57"/><polygon class="cls-39" points="50.29 64.65 49.25 64.77 49.09 65.46 49.73 65.97 50.61 65.25 50.29 64.65"/><polygon class="cls-39" points="48.76 55.03 48.04 55.91 48.44 56.47 49.64 56.39 48.76 55.03"/><path class="cls-38" d="M59.59,61.6c-.06-.42-.44-.72-.57-1.12a7.1,7.1,0,0,0-.55-1.06c-.19-.38.3-1.17.06-1.51s-1-.31-1.26-.6a7.39,7.39,0,0,0-1-.67l-.36-.27.35,1.33.18,1.14.78.48-.24.78-.78,1.19.18.84-.36,1-.9.66-.09,1v1.14l-1.2.48-.45.87L53,68.45s-.84.66-.9.54-.39.24-.39.24l-.44.72H50l-.9.33-.53-.21c.18.24.35.52.6.6s.87,0,1.29,0,.82.52,1.24.52a8.42,8.42,0,0,0,1.33,0c.42-.06.78-.52,1.18-.65s.63-.62,1-.81a6.84,6.84,0,0,0,1-.69c.34-.25.8-.3,1.1-.6s.76-.45,1-.79.25-.84.44-1.21.07-.84.2-1.24.55-.69.62-1.11a8.55,8.55,0,0,0,.17-1.25A7.38,7.38,0,0,0,59.59,61.6Z" transform="translate(0 -2.76)"/><path class="cls-36" d="M56.43,64.77s.75.39.75.51a4.41,4.41,0,0,1-.36.75l-.75-.09Z" transform="translate(0 -2.76)"/><polygon class="cls-36" points="57.87 59.28 57.15 59.43 57.15 60.21 58.53 60.78 57.87 59.28"/><path class="cls-36" d="M54.9,68.78s-1-.15-1,0a6.22,6.22,0,0,1-.18.78l.66.18Z" transform="translate(0 -2.76)"/><polygon class="cls-36" points="52.65 67.04 51.76 65.94 51.37 66.2 51.01 67.46 52.2 67.4 52.65 67.04"/><path class="cls-36" d="M51.52,65.73l-.36.48a1.56,1.56,0,0,0,.38.24c.09,0,.57-.54.57-.54Z" transform="translate(0 -2.76)"/><polygon class="cls-8" points="56.79 64.59 56.07 64.23 55.92 65.1 56.61 65.28 56.79 64.59"/><path class="cls-8" d="M70.85,73.22a8.41,8.41,0,0,1-.17,1.24c-.07.43-.49.72-.62,1.11s0,.87-.2,1.24-.19.88-.44,1.22-.71.49-1,.79-.76.35-1.1.6a8.35,8.35,0,0,1-1,.69c-.37.19-.61.68-1,.81s-.76.58-1.18.65a9.69,9.69,0,0,1-1.32,0c-.43,0-.84-.45-1.25-.51s-.9.1-1.29,0-.58-.76-1-1-1,.07-1.36-.18-.51-.72-.81-1a7.46,7.46,0,0,1-.78-1,7.25,7.25,0,0,1-.52-1.13c-.19-.38-.7-.62-.83-1a9.13,9.13,0,0,1-.07-1.29,8.85,8.85,0,0,1,.13-1.24A8,8,0,0,1,55.18,72a7.75,7.75,0,0,1,.35-1.16c.13-.4-.32-1-.13-1.41A9.85,9.85,0,0,1,56,68.28c.25-.34.86-.41,1.16-.7s.31-1,.65-1.22,1,0,1.42-.14a7.82,7.82,0,0,1,1.1-.6,9.88,9.88,0,0,1,1.22-.3,8.57,8.57,0,0,1,1.25-.07c.42,0,.92-.49,1.33-.43s.69.82,1.09,1a7.42,7.42,0,0,1,1.09.55,7.72,7.72,0,0,1,1,.69,9,9,0,0,1,1,.66c.3.3,1,.27,1.26.61s-.25,1.13-.06,1.5a6.75,6.75,0,0,1,.55,1.07c.13.39.51.7.58,1.12A8.55,8.55,0,0,1,70.85,73.22Z" transform="translate(0 -2.76)"/><polygon class="cls-38" points="61.37 64.35 60.89 66.42 59.61 66.66 59.05 65.14 61.37 64.35"/><polygon class="cls-38" points="61.69 67.46 60.17 67.78 60.09 68.66 61.77 69.06 61.69 67.46"/><polygon class="cls-38" points="64.64 69.14 62.65 70.74 63.45 71.86 65.04 71.3 64.64 69.14"/><polygon class="cls-38" points="59.13 72.26 57.45 72.26 58.25 74.09 59.85 73.53 59.13 72.26"/><polygon class="cls-38" points="65.36 66.18 64.41 66.98 64.56 67.62 65.76 67.7 66.8 66.98 65.76 66.74 65.36 66.18"/><polygon class="cls-39" points="57.77 68.02 57.13 69.06 58.01 70.26 58.73 69.54 57.85 68.9 57.77 68.02"/><polygon class="cls-39" points="60.17 69.94 59.93 70.98 61.13 71.78 61.21 70.34 60.17 69.94"/><polygon class="cls-39" points="61.77 74.57 60.33 75.13 59.69 75.77 60.81 76.33 61.69 75.61 61.77 74.57"/><polygon class="cls-39" points="63.29 63.39 62.57 64.27 62.97 64.83 64.17 64.75 63.29 63.39"/><path class="cls-38" d="M70.68,72c-.07-.42-.45-.73-.58-1.12a6.75,6.75,0,0,0-.55-1.07c-.19-.37.31-1.17.06-1.5s-1-.31-1.26-.61a9,9,0,0,0-1-.66L67,66.74l.34,1.32.18,1.14.78.48-.24.78-.78,1.2.18.84-.36,1-.9.66-.09,1V76.3l-1.2.48-.45.87-.29,1.17s-.84.66-.9.54-.39.24-.39.24l-.45.72H61.1l-.9.33-.52-.22c.17.25.34.52.59.6s.87,0,1.29,0,.82.51,1.25.51a9.69,9.69,0,0,0,1.32,0c.42-.07.78-.52,1.18-.65s.64-.62,1-.81a8.35,8.35,0,0,0,1-.69c.34-.25.8-.3,1.1-.6s.77-.45,1-.79.25-.84.44-1.22.07-.83.2-1.24.55-.68.62-1.11a8.41,8.41,0,0,0,.17-1.24A8.55,8.55,0,0,0,70.68,72Z" transform="translate(0 -2.76)"/><path class="cls-36" d="M67.51,75.13s.75.39.75.51a4.41,4.41,0,0,1-.36.75l-.75-.09Z" transform="translate(0 -2.76)"/><polygon class="cls-36" points="68.95 69.65 68.23 69.8 68.23 70.58 69.61 71.15 68.95 69.65"/><path class="cls-36" d="M66,79.15s-1-.15-1,0a6.22,6.22,0,0,1-.18.78l.66.18Z" transform="translate(0 -2.76)"/><polygon class="cls-36" points="63.74 77.41 62.84 76.3 62.33 76.3 62.03 76.57 63.29 77.77 63.74 77.41"/><path class="cls-36" d="M64,76.06l-.36.48s.3.24.39.24.56-.54.56-.54Z" transform="translate(0 -2.76)"/><polygon class="cls-8" points="67.87 74.95 67.15 74.59 67 75.46 67.69 75.64 67.87 74.95"/><path class="cls-47" d="M27,53.21s.58,11.26,5.12,11.86c1.71,0,1.32-2.34.47-3.4-1.27-1.6-2.05-5.51-2.37-8.93C29.15,52.86,27,53.21,27,53.21Z" transform="translate(0 -2.76)"/><path class="cls-47" d="M32.68,51.6c.82,2.23-1.47,3.25-3.89,3.65s-4.67.19-4.87-2.18a5,5,0,0,1,3.66-5C29.42,47.77,31.84,49.32,32.68,51.6Z" transform="translate(0 -2.76)"/><path class="cls-47" d="M32.68,51.6a5.44,5.44,0,0,0-.82-1.45c.23,1.7-1.56,2.48-3.46,2.8s-3.84.14-4.19-1.77a4.2,4.2,0,0,0-.29,1.89c.2,2.37,2.45,2.59,4.87,2.18S33.5,53.83,32.68,51.6Z" transform="translate(0 -2.76)"/><path class="cls-47" d="M32.68,51.6a5.44,5.44,0,0,0-.82-1.45c.23,1.7-1.56,2.48-3.46,2.8s-3.84.14-4.19-1.77a4.2,4.2,0,0,0-.29,1.89c.2,2.37,2.45,2.59,4.87,2.18S33.5,53.83,32.68,51.6Z" transform="translate(0 -2.76)"/><path class="cls-47" d="M32.68,51.6a5.44,5.44,0,0,0-.82-1.45c.23,1.7-1.56,2.48-3.46,2.8s-3.84.14-4.19-1.77a4.2,4.2,0,0,0-.29,1.89c.2,2.37,2.45,2.59,4.87,2.18S33.5,53.83,32.68,51.6Z" transform="translate(0 -2.76)"/><path class="cls-48" d="M27,53.21s.58,11.26,5.12,11.86c1.71,0,1.32-2.34.47-3.4-1.27-1.6-2.05-5.51-2.37-8.93C29.15,52.86,27,53.21,27,53.21Z" transform="translate(0 -2.76)"/><path class="cls-47" d="M32.68,51.6c.82,2.23-1.47,3.25-3.89,3.65s-4.67.19-4.87-2.18a5,5,0,0,1,3.66-5C29.42,47.77,31.84,49.32,32.68,51.6Z" transform="translate(0 -2.76)"/><path class="cls-49" d="M32.68,51.6a5.44,5.44,0,0,0-.82-1.45c.23,1.7-1.56,2.48-3.46,2.8s-3.84.14-4.19-1.77a4.2,4.2,0,0,0-.29,1.89c.2,2.37,2.45,2.59,4.87,2.18S33.5,53.83,32.68,51.6Z" transform="translate(0 -2.76)"/><path class="cls-50" d="M10.8,48s.59,11.25,5.13,11.86c1.7,0,1.31-2.35.47-3.41C15.13,54.86,14.34,51,14,47.52,13,47.65,10.8,48,10.8,48Z" transform="translate(0 -2.76)"/><path class="cls-51" d="M16.53,46.38c.82,2.24-1.47,3.25-3.89,3.66S8,50.23,7.77,47.86a5,5,0,0,1,3.67-5C13.28,42.56,15.69,44.11,16.53,46.38Z" transform="translate(0 -2.76)"/><path class="cls-52" d="M16.53,46.38a5.81,5.81,0,0,0-.81-1.44c.22,1.69-1.57,2.48-3.46,2.8s-3.84.14-4.2-1.78a4.38,4.38,0,0,0-.29,1.9C8,50.23,10.23,50.45,12.64,50S17.35,48.62,16.53,46.38Z" transform="translate(0 -2.76)"/><path class="cls-53" d="M29.25,61.31s.28,6.47,2.89,6.84c1,0,.76-1.35.28-2-.72-.92-1.15-3.17-1.32-5.14C30.51,61.12,29.25,61.31,29.25,61.31Z" transform="translate(0 -2.76)"/><path class="cls-54" d="M32.55,60.41c.46,1.28-.86,1.86-2.25,2.08s-2.69.09-2.79-1.28a2.85,2.85,0,0,1,2.13-2.85A3,3,0,0,1,32.55,60.41Z" transform="translate(0 -2.76)"/><path class="cls-55" d="M32.55,60.41a3.11,3.11,0,0,0-.46-.84c.12,1-.92,1.42-2,1.59s-2.21.07-2.41-1a2.55,2.55,0,0,0-.17,1.09c.1,1.37,1.39,1.5,2.79,1.28S33,61.69,32.55,60.41Z" transform="translate(0 -2.76)"/><path class="cls-56" d="M19.75,47.48s-1.91,16.59,4.57,18.6c2.48.47,2.5-3.11,1.53-4.87-1.46-2.63-1.65-8.55-1.27-13.63C23.05,47.51,19.75,47.48,19.75,47.48Z" transform="translate(0 -2.76)"/><path class="cls-54" d="M28.52,46.53c.65,3.47-2.95,4.39-6.58,4.39s-6.87-.87-6.58-4.39,3.81-6.39,6.58-6.39S27.85,43,28.52,46.53Z" transform="translate(0 -2.76)"/><path class="cls-57" d="M28.52,46.53a8.45,8.45,0,0,0-.83-2.32c-.09,2.54-2.9,3.25-5.75,3.25s-5.65-.74-5.69-3.63a6.26,6.26,0,0,0-.89,2.7c-.29,3.52,2.95,4.39,6.58,4.39S29.17,50,28.52,46.53Z" transform="translate(0 -2.76)"/><path class="cls-47" d="M16.33,53.53s.59,11.25,5.13,11.86c1.7,0,1.31-2.35.47-3.41-1.27-1.59-2.06-5.5-2.38-8.93C18.53,53.18,16.33,53.53,16.33,53.53Z" transform="translate(0 -2.76)"/><path class="cls-47" d="M22.06,51.92c.82,2.23-1.47,3.24-3.89,3.65s-4.66.19-4.87-2.18a5,5,0,0,1,3.67-5C18.81,48.09,21.22,49.64,22.06,51.92Z" transform="translate(0 -2.76)"/><path class="cls-47" d="M22.06,51.92a5.7,5.7,0,0,0-.81-1.45c.22,1.69-1.57,2.48-3.46,2.8s-3.84.14-4.2-1.78a4.38,4.38,0,0,0-.29,1.9c.21,2.37,2.46,2.59,4.87,2.18S22.88,54.15,22.06,51.92Z" transform="translate(0 -2.76)"/><path class="cls-47" d="M22.06,51.92a5.7,5.7,0,0,0-.81-1.45c.22,1.69-1.57,2.48-3.46,2.8s-3.84.14-4.2-1.78a4.38,4.38,0,0,0-.29,1.9c.21,2.37,2.46,2.59,4.87,2.18S22.88,54.15,22.06,51.92Z" transform="translate(0 -2.76)"/><path class="cls-47" d="M22.06,51.92a5.7,5.7,0,0,0-.81-1.45c.22,1.69-1.57,2.48-3.46,2.8s-3.84.14-4.2-1.78a4.38,4.38,0,0,0-.29,1.9c.21,2.37,2.46,2.59,4.87,2.18S22.88,54.15,22.06,51.92Z" transform="translate(0 -2.76)"/><path class="cls-58" d="M16.33,53.53s.59,11.25,5.13,11.86c1.7,0,1.31-2.35.47-3.41-1.27-1.59-2.06-5.5-2.38-8.93C18.53,53.18,16.33,53.53,16.33,53.53Z" transform="translate(0 -2.76)"/><path class="cls-47" d="M22.06,51.92c.82,2.23-1.47,3.24-3.89,3.65s-4.66.19-4.87-2.18a5,5,0,0,1,3.67-5C18.81,48.09,21.22,49.64,22.06,51.92Z" transform="translate(0 -2.76)"/><path class="cls-49" d="M22.06,51.92a5.7,5.7,0,0,0-.81-1.45c.22,1.69-1.57,2.48-3.46,2.8s-3.84.14-4.2-1.78a4.38,4.38,0,0,0-.29,1.9c.21,2.37,2.46,2.59,4.87,2.18S22.88,54.15,22.06,51.92Z" transform="translate(0 -2.76)"/><path class="cls-59" d="M24.82,56.87s.59,11.25,5.12,11.86c1.71,0,1.32-2.35.47-3.41-1.26-1.59-2.05-5.5-2.37-8.93C27,56.52,24.82,56.87,24.82,56.87Z" transform="translate(0 -2.76)"/><path class="cls-54" d="M30.55,55.25c.82,2.24-1.47,3.25-3.89,3.66s-4.66.19-4.87-2.18a5,5,0,0,1,3.66-5C27.29,51.43,29.71,53,30.55,55.25Z" transform="translate(0 -2.76)"/><path class="cls-55" d="M30.55,55.25a5.54,5.54,0,0,0-.82-1.44c.23,1.69-1.56,2.48-3.45,2.8s-3.85.14-4.2-1.78a4.36,4.36,0,0,0-.29,1.9c.21,2.37,2.45,2.58,4.87,2.18S31.37,57.49,30.55,55.25Z" transform="translate(0 -2.76)"/><path class="cls-60" d="M19.51,57.69s.24,5.34,2.38,5.64c.81,0,.64-1.11.24-1.61A9.81,9.81,0,0,1,21,57.47Z" transform="translate(0 -2.76)"/><path class="cls-54" d="M22.23,56.94c.39,1.07-.71,1.54-1.85,1.72s-2.22.07-2.3-1a2.35,2.35,0,0,1,1.75-2.35A2.46,2.46,0,0,1,22.23,56.94Z" transform="translate(0 -2.76)"/><path class="cls-55" d="M22.23,56.94a2.58,2.58,0,0,0-.38-.69c.1.81-.75,1.18-1.65,1.32s-1.82,0-2-.86a2,2,0,0,0-.14.9c.08,1.12,1.15,1.23,2.3,1S22.62,58,22.23,56.94Z" transform="translate(0 -2.76)"/><path class="cls-61" d="M14.81,59.24s2.52,6,5.09,5.4c.93-.31.25-1.53-.41-1.93-1-.62-2.19-2.57-3-4.36C15.93,58.62,14.81,59.24,14.81,59.24Z" transform="translate(0 -2.76)"/><path class="cls-54" d="M17.59,57.24c.88,1-.16,2-1.39,2.74s-2.48,1-3-.23a2.84,2.84,0,0,1,1-3.41A3,3,0,0,1,17.59,57.24Z" transform="translate(0 -2.76)"/><path class="cls-55" d="M17.59,57.24a3.08,3.08,0,0,0-.73-.62c.46.87-.36,1.65-1.32,2.19s-2,.83-2.61-.14a2.38,2.38,0,0,0,.22,1.08c.57,1.24,1.83.92,3,.23S18.47,58.29,17.59,57.24Z" transform="translate(0 -2.76)"/><path class="cls-62" d="M18.75,62.1s2.52,6,5.09,5.4c.93-.31.25-1.52-.41-1.93-1-.61-2.19-2.57-3-4.36C19.87,61.48,18.75,62.1,18.75,62.1Z" transform="translate(0 -2.76)"/><path class="cls-47" d="M21.53,60.1c.88,1-.16,2-1.39,2.74s-2.48,1-3.05-.23a2.84,2.84,0,0,1,1-3.41A3,3,0,0,1,21.53,60.1Z" transform="translate(0 -2.76)"/><path class="cls-63" d="M21.53,60.1a3.53,3.53,0,0,0-.72-.62c.45.87-.36,1.65-1.32,2.19s-2,.83-2.62-.14a2.52,2.52,0,0,0,.22,1.08c.57,1.24,1.83.92,3.05.23S22.41,61.15,21.53,60.1Z" transform="translate(0 -2.76)"/><path class="cls-36" d="M58.9,76.07a7.38,7.38,0,0,1-.18,1.25c-.06.42-.49.71-.62,1.11s0,.86-.2,1.24-.19.87-.43,1.21-.72.5-1,.8-.76.34-1.1.59a6.25,6.25,0,0,1-1,.69c-.37.19-.6.68-1,.81s-.76.59-1.18.65a8.29,8.29,0,0,1-1.32,0c-.43,0-.83-.45-1.24-.52s-.9.11-1.3,0-.58-.77-1-1-1,.08-1.37-.17-.51-.73-.8-1a8.26,8.26,0,0,1-.79-1,7.32,7.32,0,0,1-.51-1.14c-.19-.37-.7-.61-.83-1A7.85,7.85,0,0,1,43,77.32a7.77,7.77,0,0,1,.12-1.25,7,7,0,0,1,.12-1.21,6.35,6.35,0,0,1,.34-1.15c.13-.41-.31-1-.12-1.41a8.11,8.11,0,0,1,.61-1.17c.24-.34.85-.4,1.15-.7s.32-1,.66-1.22,1,.06,1.42-.13a7.71,7.71,0,0,1,1.09-.6,7.25,7.25,0,0,1,1.22-.3,7.37,7.37,0,0,1,1.25-.07c.43,0,.92-.5,1.33-.43s.7.82,1.09.94a8.61,8.61,0,0,1,1.09.56,7.65,7.65,0,0,1,1,.68,8,8,0,0,1,1,.67c.29.3,1,.26,1.25.6s-.25,1.13,0,1.51a7.1,7.1,0,0,1,.55,1.06c.13.4.5.71.57,1.13A8.62,8.62,0,0,1,58.9,76.07Z" transform="translate(0 -2.76)"/><path class="cls-32" d="M49,70.72,48.93,72,48,72l-.18-1L49,70.69S49,70.7,49,70.72Z" transform="translate(0 -2.76)"/><polygon class="cls-32" points="49.73 70.32 48.21 70.64 48.82 71.37 49.81 71.92 49.73 70.32"/><polygon class="cls-32" points="52.69 72 50.69 73.59 51.49 74.71 53.09 74.15 52.69 72"/><polygon class="cls-32" points="47.45 75.32 46.43 75.44 47.21 76.49 48.16 76.6 47.45 75.32"/><polygon class="cls-32" points="53.41 69.04 52.45 69.84 52.61 70.48 53.81 70.56 54.85 69.84 54.04 68.88 53.41 69.04"/><polygon class="cls-37" points="45.07 70.34 44.81 71.34 45.17 72 46.03 71.86 45.71 70.44 45.07 70.34"/><polygon class="cls-37" points="48.43 73.19 47.98 73.83 49.17 74.63 49.25 73.19 48.43 73.19"/><polygon class="cls-37" points="49.81 77.43 48.37 77.99 47.73 78.63 48.85 79.19 49.73 78.47 49.81 77.43"/><polygon class="cls-37" points="51.33 66.24 50.61 67.12 51.01 67.68 52.21 67.6 51.33 66.24"/><path class="cls-32" d="M58.72,74.83c-.07-.42-.44-.73-.57-1.13a7.1,7.1,0,0,0-.55-1.06c-.2-.38.3-1.17,0-1.51s-1-.3-1.25-.6a8,8,0,0,0-1-.67L55,69.59l.35,1.33.18,1.14.77.48-.24.78-.77,1.19.18.84-.36,1-.9.66-.09,1v1.14l-1.2.48-.45.87h-.62a10,10,0,0,1-1.2-.78c-.06-.12-.6.48-.6.48L48.19,80l-.8.45-.93.45,1.26,2.39c.18.24.34.52.59.6s.88,0,1.3,0,.81.52,1.24.52a8.29,8.29,0,0,0,1.32,0c.42-.06.79-.52,1.18-.65s.64-.62,1-.81a6.25,6.25,0,0,0,1-.69c.34-.25.81-.3,1.1-.59s.77-.46,1-.8.24-.84.43-1.21.07-.84.2-1.24.56-.69.62-1.11a7.38,7.38,0,0,0,.18-1.25A8.62,8.62,0,0,0,58.72,74.83Z" transform="translate(0 -2.76)"/><path class="cls-33" d="M55.56,78s.74.39.74.51a4.41,4.41,0,0,1-.36.75l-.74-.09Z" transform="translate(0 -2.76)"/><polygon class="cls-33" points="56.99 72.5 56.27 72.65 56.27 73.43 57.65 74 56.99 72.5"/><path class="cls-33" d="M54,82s-1-.15-1,0a6.44,6.44,0,0,1-.18.77l.66.18Z" transform="translate(0 -2.76)"/><polygon class="cls-33" points="51.78 80.27 50.88 79.16 50.37 79.16 50.07 79.43 51.33 80.62 51.78 80.27"/><path class="cls-33" d="M52,78.92l-.36.48s.3.24.39.24.57-.54.57-.54Z" transform="translate(0 -2.76)"/><polygon class="cls-36" points="55.91 77.81 55.2 77.45 55.05 78.32 55.73 78.5 55.91 77.81"/><ellipse class="cls-64" cx="36.07" cy="63.46" rx="12.55" ry="11.46"/><path class="cls-65" d="M45.09,58.26a8.74,8.74,0,0,1,2.34,5.88c0,5.34-5.09,9.68-11.37,9.68S24.7,69.48,24.7,64.14A8.74,8.74,0,0,1,27,58.26a10.94,10.94,0,0,0-3.53,8c0,6.33,5.62,11.46,12.55,11.46s12.56-5.13,12.56-11.46A10.94,10.94,0,0,0,45.09,58.26Z" transform="translate(0 -2.76)"/><path class="cls-46" d="M39.14,63.65a20.21,20.21,0,0,0,4-3.82,22.5,22.5,0,0,0-5.54,1.33A18.8,18.8,0,0,0,36.06,56a19,19,0,0,0-1.53,5.16A22.5,22.5,0,0,0,29,59.83a20.21,20.21,0,0,0,4,3.82,20.41,20.41,0,0,0-4,3.83,22.5,22.5,0,0,0,5.54-1.33,19,19,0,0,0,1.53,5.16,18.8,18.8,0,0,0,1.54-5.16,22.5,22.5,0,0,0,5.54,1.33A20.41,20.41,0,0,0,39.14,63.65Z" transform="translate(0 -2.76)"/></g></g></g></svg>