<svg xmlns="http://www.w3.org/2000/svg" viewBox="0 0 170.68 120.65"><defs><style>.cls-1{fill:#3bb698;}.cls-2{fill:#fff;}.cls-3{fill:#a8becb;}.cls-4{fill:#2eacc5;}.cls-5{fill:#afdbd0;opacity:0.45;}</style></defs><title>step-2_1</title><g id="圖層_2" data-name="圖層 2"><g id="圖層_1-2" data-name="圖層 1"><rect class="cls-1" x="41.3" y="89.98" width="88.09" height="30.67"/><path class="cls-2" d="M14.42,1.34H156.26a13.08,13.08,0,0,1,13.08,13.09h0v1.82a13.09,13.09,0,0,1-13.09,13.09H14.43A13.1,13.1,0,0,1,1.33,16.25h0V14.43A13.09,13.09,0,0,1,14.42,1.34Z"/><path class="cls-3" d="M156.25,2.67A11.78,11.78,0,0,1,168,14.43v1.82A11.78,11.78,0,0,1,156.25,28H14.42A11.76,11.76,0,0,1,2.67,16.25V14.43A11.76,11.76,0,0,1,14.42,2.67H156.25m0-2.67H14.42A14.43,14.43,0,0,0,0,14.43H0v1.82A14.43,14.43,0,0,0,14.42,30.68H156.25a14.43,14.43,0,0,0,14.43-14.43h0V14.43A14.43,14.43,0,0,0,156.25,0Z"/><path class="cls-2" d="M14.42,41.72H156.25a13.09,13.09,0,0,1,13.09,13.09h0v1.83a13.09,13.09,0,0,1-13.09,13.09H14.43A13.1,13.1,0,0,1,1.33,56.64h0V54.81A13.09,13.09,0,0,1,14.42,41.72Z"/><path class="cls-3" d="M156.25,43.06A11.76,11.76,0,0,1,168,54.81v1.83A11.78,11.78,0,0,1,156.25,68.4H14.42A11.76,11.76,0,0,1,2.67,56.64V54.81A11.75,11.75,0,0,1,14.42,43.06H156.25m0-2.67H14.42A14.43,14.43,0,0,0,0,54.81H0v1.83A14.43,14.43,0,0,0,14.42,71.06H156.25a14.43,14.43,0,0,0,14.43-14.42h0V54.81a14.43,14.43,0,0,0-14.43-14.42Z"/><circle class="cls-4" cx="17.8" cy="55.74" r="4.09"/><circle class="cls-4" cx="32.63" cy="55.74" r="4.09"/><circle class="cls-4" cx="47.45" cy="55.74" r="4.09"/><circle class="cls-4" cx="62.28" cy="55.74" r="4.09"/><circle class="cls-4" cx="77.1" cy="55.74" r="4.09"/><circle class="cls-4" cx="91.93" cy="55.74" r="4.09"/><path class="cls-2" d="M60.48,109.24a5.3,5.3,0,0,0,2.69.76c1.53,0,2.43-.8,2.43-2s-.62-1.71-2.19-2.31c-1.9-.68-3.07-1.66-3.07-3.3a3.35,3.35,0,0,1,3.51-3.18l.25,0a5.32,5.32,0,0,1,2.57.57l-.41,1.23a4.62,4.62,0,0,0-2.21-.56c-1.59,0-2.19,1-2.19,1.75,0,1.08.71,1.62,2.31,2.24,2,.76,3,1.71,3,3.42s-1.34,3.34-4.07,3.34a5.93,5.93,0,0,1-3-.74Z"/><path class="cls-2" d="M76.12,108.79c0,.87,0,1.62.07,2.28H74.85l-.08-1.36h0A3.14,3.14,0,0,1,72,111.26c-1.31,0-2.88-.72-2.88-3.66v-4.87h1.52v4.62c0,1.6.48,2.67,1.87,2.67a2.21,2.21,0,0,0,2-1.38,2.33,2.33,0,0,0,.14-.78v-5.13h1.52Z"/><path class="cls-2" d="M78.56,111.07c0-.57.07-1.41.07-2.16V98.82h1.5v5.24h0A3.11,3.11,0,0,1,83,102.53a3.75,3.75,0,0,1,3.56,3.93c0,.11,0,.22,0,.33a4,4,0,0,1-3.43,4.45l-.3,0A3,3,0,0,1,80,109.69H80l-.06,1.38Zm1.57-3.35a3.43,3.43,0,0,0,.07.56,2.33,2.33,0,0,0,2.28,1.77c1.58,0,2.53-1.29,2.53-3.2,0-1.67-.86-3.1-2.48-3.1a2.41,2.41,0,0,0-2.31,1.86,3.31,3.31,0,0,0-.09.62Z"/><path class="cls-2" d="M88.44,105c0-.86,0-1.57-.07-2.26h1.34l.07,1.33h0a2.87,2.87,0,0,1,2.62-1.53,2.46,2.46,0,0,1,2.36,1.67h0a3.48,3.48,0,0,1,.93-1.09,2.86,2.86,0,0,1,1.85-.58c1.1,0,2.74.72,2.74,3.62v4.92H98.89v-4.72c0-1.6-.59-2.57-1.82-2.57a2,2,0,0,0-1.79,1.38,2.51,2.51,0,0,0-.12.76v5.16H93.67v-5c0-1.33-.58-2.29-1.74-2.29a2.26,2.26,0,0,0-2,2.25v5H88.45Z"/><path class="cls-2" d="M104.52,100.38a1,1,0,0,1-1,.89.94.94,0,0,1-.89-.89.92.92,0,0,1,.9-.95h0a.9.9,0,0,1,.94.86Zm-1.69,10.69v-8.34h1.51v8.35Z"/><path class="cls-2" d="M108.69,100.33v2.4h2.17v1.15h-2.17v4.5c0,1,.29,1.62,1.14,1.62a3.77,3.77,0,0,0,.88-.1l.07,1.14a3.58,3.58,0,0,1-1.34.2,2.08,2.08,0,0,1-1.64-.64,3.06,3.06,0,0,1-.58-2.17v-4.56h-1.3v-1.14h1.29v-2Z"/><polygon class="cls-5" points="41.3 109.38 41.3 89.97 60.71 89.97 41.3 109.38"/><path class="cls-4" d="M13.9,15.61c0-3.79,2.1-6.07,5.13-6.07s5.13,2.28,5.13,6.07S22.05,21.75,19,21.75,13.9,19.4,13.9,15.61Zm8.36,0c0-2.77-1.28-4.45-3.23-4.45s-3.22,1.68-3.22,4.45,1.26,4.53,3.22,4.53S22.26,18.38,22.26,15.61Z"/><path class="cls-4" d="M28.56,11.32H25.1V9.77h8.79v1.55H30.42V21.55H28.56Z"/><path class="cls-4" d="M35.92,9.77h3.57c2.62,0,4.5.89,4.5,3.55s-1.88,3.76-4.44,3.76H37.78v4.47H35.92Zm3.46,5.82c1.89,0,2.78-.72,2.78-2.27s-1-2.07-2.85-2.07H37.78v4.34Z"/></g></g></svg>