<svg xmlns="http://www.w3.org/2000/svg" viewBox="0 0 156.64 133.03"><defs><style>.cls-1{fill:#fff;}.cls-2{fill:#a8becb;}.cls-3{fill:#405d70;}.cls-4{fill:#2eacc5;}.cls-5{fill:#cddae3;}.cls-6{opacity:0.7;}</style></defs><title>step3</title><g id="圖層_2" data-name="圖層 2"><g id="圖層_1-2" data-name="圖層 1"><path class="cls-1" d="M24.48,93.77A23.27,23.27,0,0,1,1.22,70.55V65.66A23.15,23.15,0,0,1,22,42.71l1.25-.14L23,41.32a33.33,33.33,0,0,1-.4-5A35.18,35.18,0,0,1,90.58,23.59l.47,1.2,1.18-.53a23.41,23.41,0,0,1,8.76-1.6,25.94,25.94,0,0,1,8.68,1.5c11.69,4.14,11.91,16.54,11.91,17.07v1.22h10.59a23.26,23.26,0,0,1,23.25,23.21v4.9a23.26,23.26,0,0,1-23.25,23.21Z"/><path class="cls-2" d="M57.82,2.45a33.74,33.74,0,0,1,31.62,21.6l.94,2.38,2.35-1.05A22.21,22.21,0,0,1,101,23.89a25.06,25.06,0,0,1,8.27,1.43c10.85,3.84,11.09,15.42,11.09,15.91v2.45h11.82a22,22,0,0,1,22,22v4.89a22,22,0,0,1-22,22H24.48a22,22,0,0,1-22-22V65.67A21.93,21.93,0,0,1,22.09,43.93l2.51-.27-.35-2.5A33.65,33.65,0,0,1,52.45,2.83a33.29,33.29,0,0,1,5.37-.38m0-2.45a36.13,36.13,0,0,0-36,41.5A24.45,24.45,0,0,0,0,65.67v4.89A24.53,24.53,0,0,0,24.48,95H132.17a24.53,24.53,0,0,0,24.47-24.44V65.67a24.53,24.53,0,0,0-24.47-24.44H122.8s0-13.72-12.73-18.21A27.07,27.07,0,0,0,101,21.45a24.31,24.31,0,0,0-9.27,1.71A36.39,36.39,0,0,0,57.82,0Z"/><path class="cls-3" d="M129.47,127.39V58.18a3,3,0,0,0-3-3H30.19a3,3,0,0,0-3,3v69.21Z"/><rect class="cls-4" x="30.94" y="58.93" width="94.77" height="64.7"/><rect class="cls-5" x="18.12" y="127.39" width="120.37" height="1.88"/><polygon class="cls-2" points="132.5 133.03 24.16 133.03 18.15 129.27 138.52 129.27 132.5 133.03"/><g class="cls-6"><path class="cls-1" d="M88.43,127.39H68.19a2.34,2.34,0,0,0,2.31,1.88H86.12A2.31,2.31,0,0,0,88.43,127.39Z"/></g><rect class="cls-1" x="46.25" y="77.84" width="64.15" height="2.45"/><rect class="cls-1" x="46.25" y="90.33" width="64.15" height="2.45"/><rect class="cls-1" x="46.25" y="102.58" width="64.15" height="2.45"/></g></g></svg>