<svg xmlns="http://www.w3.org/2000/svg" viewBox="0 0 157.63 133.03"><defs><style>.cls-1{fill:#fff;}.cls-2{fill:#3bb698;}.cls-3{opacity:0.7;}.cls-4{fill:#405d70;}.cls-5{fill:#33a3ba;}.cls-6{fill:#37b59e;}.cls-7{fill:#cddae3;}.cls-8{fill:#d34e5c;}.cls-9{opacity:0.25;}</style></defs><title>d</title><g id="圖層_2" data-name="圖層 2"><g id="圖層_1-2" data-name="圖層 1"><rect class="cls-1" x="0.5" y="15.2" width="156.63" height="103.53"/><path class="cls-2" d="M156.63,15.7V118.23H1V15.7H156.63m1-1H0V119.23H157.63V14.7Z"/><path class="cls-2" d="M9.83,0h138a9.83,9.83,0,0,1,9.82,9.83h0v9.91H0V9.83A9.83,9.83,0,0,1,9.82,0Z"/><g class="cls-3"><circle class="cls-1" cx="13.61" cy="9.88" r="2.75"/></g><g class="cls-3"><circle class="cls-1" cx="21.85" cy="9.88" r="2.75"/></g><g class="cls-3"><circle class="cls-1" cx="30.09" cy="9.88" r="2.75"/></g><polygon class="cls-1" points="141.91 14.7 44.05 14.7 48.98 5.05 141.91 5.05 141.91 14.7"/><path class="cls-4" d="M52.93,8l.4,1.75c.09.41.18.83.25,1.25h0a11.82,11.82,0,0,1,.31-1.24L54.41,8h.79l.49,1.72c.12.45.22.87.31,1.29h0c.06-.42.15-.84.24-1.29L56.69,8h1l-1.21,3.86h-.91l-.46-1.57c-.12-.41-.21-.82-.29-1.24h0a10.62,10.62,0,0,1-.29,1.24L54,11.81h-.91L51.92,8Z"/><path class="cls-4" d="M59.2,8l.4,1.75c.09.41.17.83.25,1.25h0c.08-.42.21-.85.32-1.24L60.66,8h.79l.49,1.72c.12.45.23.87.31,1.29h0c.06-.42.15-.84.25-1.29L62.94,8h1l-1.22,3.86h-.9l-.46-1.57c-.12-.41-.22-.82-.3-1.24h0a10.62,10.62,0,0,1-.29,1.24l-.49,1.57h-.91L58.19,8Z"/><path class="cls-4" d="M65.46,8l.41,1.75c.08.41.17.83.24,1.25h0c.08-.42.2-.85.31-1.24L66.94,8h.79l.5,1.72c.11.45.22.87.3,1.29h0c.06-.42.15-.84.25-1.29L69.23,8h1L69,11.81h-.9l-.46-1.57A10.62,10.62,0,0,1,67.31,9h0A10.62,10.62,0,0,1,67,10.24l-.5,1.57h-.91L64.45,8Z"/><path class="cls-4" d="M70.55,11.27a.59.59,0,0,1,.56-.63h0a.63.63,0,0,1,.59.67.64.64,0,0,1-.59.59.59.59,0,0,1-.6-.59Z"/><rect class="cls-4" x="130.18" y="9.26" width="6.64" height="1.23"/><polygon class="cls-4" points="134.92 13.24 134.05 12.37 136.54 9.87 134.05 7.39 134.92 6.51 138.29 9.87 134.92 13.24"/><circle class="cls-1" cx="73.89" cy="49.46" r="13.6"/><path class="cls-5" d="M73.89,36.63A12.84,12.84,0,1,1,61.05,49.46,12.83,12.83,0,0,1,73.89,36.63m0-1.53A14.37,14.37,0,1,0,88.25,49.46,14.37,14.37,0,0,0,73.89,35.1Z"/><path class="cls-1" d="M45.54,96.45V80.71c0-11.29,10.81-12.64,13.31-12.8L72,96.45Z"/><path class="cls-5" d="M58.38,68.72l12.44,27H46.3v-15c0-9.93,9-11.68,12.08-12m.95-1.59s-14.56.19-14.56,13.58v16.5H73.21L59.33,67.13Z"/><path class="cls-1" d="M75.76,96.45,88.92,67.91c2.5.17,13.32,1.53,13.32,12.8V96.45Z"/><path class="cls-5" d="M89.4,68.72c3,.31,12.07,2.06,12.07,12v15H77l12.43-27m-1-1.59L74.56,97.21H103V80.71c0-13.39-14.56-13.58-14.56-13.58Z"/><polygon class="cls-6" points="73.89 67.13 63.89 67.13 73.89 89.25 83.89 67.13 73.89 67.13"/><polygon class="cls-7" points="71.1 133.03 91.58 127.68 134.56 84.69 119.44 69.57 76.46 112.56 71.1 133.03"/><polyline class="cls-4" points="74.04 121.81 71.1 133.03 82.33 130.1"/><rect class="cls-4" x="117.46" y="74.85" width="2.28" height="21.38" transform="translate(-25.74 108.92) rotate(-45)"/><rect class="cls-4" x="76.27" y="90.68" width="53.01" height="21.38" transform="translate(-41.58 102.37) rotate(-45)"/><rect class="cls-8" x="115.38" y="71.26" width="13.63" height="21.38" transform="translate(-22.16 110.41) rotate(-45)"/><g class="cls-9"><polygon class="cls-1" points="71.1 133.03 127.29 77.42 119.44 69.58 76.47 112.55 71.1 133.03"/></g><circle class="cls-5" cx="73.89" cy="49.46" r="13.6"/></g></g></svg>