<svg xmlns="http://www.w3.org/2000/svg" viewBox="0 0 56.06 84.75"><defs><style>.cls-1{opacity:0.27;}.cls-2{fill:#eb5d42;}</style></defs><title>three</title><g id="圖層_2" data-name="圖層 2"><g id="圖層_1-2" data-name="圖層 1"><g class="cls-1"><path class="cls-2" d="M0,73.38,7.61,63.12c4.86,4.75,10.82,8.39,18.21,8.39,8.28,0,13.91-4.09,13.91-11.37,0-8-4.75-13-22.52-13V35.42c15,0,19.87-5.18,19.87-12.47,0-6.4-4-10.15-10.93-10.26C20.3,12.8,15.56,15.56,10.7,20L2.43,10C9.49,3.86,17.33,0,26.93,0,42.71,0,53.41,7.72,53.41,21.74c0,8.83-5,15.23-13.68,18.65v.55C49,43.48,56.06,50.32,56.06,61c0,15-13.13,23.73-28.69,23.73C14.46,84.75,5.74,79.89,0,73.38Z"/></g></g></g></svg>