<svg xmlns="http://www.w3.org/2000/svg" viewBox="0 0 29.1 39"><defs><style>.cls-1{fill:#231815;}.cls-2{fill:none;stroke:#231815;stroke-linecap:round;stroke-linejoin:round;stroke-width:2px;}</style></defs><title>top</title><g id="圖層_2" data-name="圖層 2"><g id="圖層_1-2" data-name="圖層 1"><path class="cls-1" d="M4.49,15a1.09,1.09,0,0,1-.82-.34,1.13,1.13,0,0,1-.33-.81V2.36c0-.09,0-.13-.16-.13H1a.92.92,0,0,1-.7-.3A1,1,0,0,1,0,1.23,1,1,0,0,1,.28.53.92.92,0,0,1,1,.23H8a.92.92,0,0,1,.69.3,1,1,0,0,1,.28.7,1,1,0,0,1-.28.7.92.92,0,0,1-.69.3H5.82c-.1,0-.16,0-.16.13V13.85a1.13,1.13,0,0,1-.33.81,1.08,1.08,0,0,1-.82.34Z"/><path class="cls-1" d="M17.14,13.28a3.56,3.56,0,0,1-6.35,0A11.44,11.44,0,0,1,9.63,7.54a11.06,11.06,0,0,1,1.16-5.65,3.61,3.61,0,0,1,6.35,0A11.06,11.06,0,0,1,18.3,7.54,11.44,11.44,0,0,1,17.14,13.28Zm-4.2-.57a1.29,1.29,0,0,0,2.05,0,4,4,0,0,0,.67-1.79,18,18,0,0,0,.26-3.38,17.38,17.38,0,0,0-.26-3.33A3.84,3.84,0,0,0,15,2.48a1.37,1.37,0,0,0-2.07,0,3.84,3.84,0,0,0-.66,1.73A17.38,17.38,0,0,0,12,7.54a18,18,0,0,0,.26,3.38A4,4,0,0,0,12.94,12.71Z"/><path class="cls-1" d="M21.33,15a1.16,1.16,0,0,1-1.15-1.15V1.39a1.07,1.07,0,0,1,.34-.81,1.11,1.11,0,0,1,.81-.35h2.05a5.89,5.89,0,0,1,3.74,1A4.18,4.18,0,0,1,28.4,4.71a4.48,4.48,0,0,1-1.31,3.51,5.38,5.38,0,0,1-3.71,1.17h-.7a.14.14,0,0,0-.16.16v4.3a1.13,1.13,0,0,1-.33.81,1.09,1.09,0,0,1-.82.34Zm1.19-7.6c0,.09.05.14.16.14h.48a3.09,3.09,0,0,0,2.23-.69,2.9,2.9,0,0,0,.7-2.14,2.46,2.46,0,0,0-.68-2,3.52,3.52,0,0,0-2.25-.57h-.48c-.11,0-.16,0-.16.14Z"/><polyline class="cls-2" points="1.74 38 14.92 24.82 28.1 38"/></g></g></svg>